<?xml version="1.0" encoding="UTF-8"?>
<svg width="188px" height="188px" viewBox="0 0 188 188" version="1.1" xmlns="http://www.w3.org/2000/svg" xmlns:xlink="http://www.w3.org/1999/xlink">
    <!-- Generator: Sketch 50.2 (55047) - http://www.bohemiancoding.com/sketch -->
    <title>01-avatar-02</title>
    <desc>Created with Sketch.</desc>
    <defs>
        <circle id="path-1" cx="86" cy="86" r="86"></circle>
        <filter x="-7.6%" y="-6.4%" width="115.1%" height="115.1%" filterUnits="objectBoundingBox" id="filter-3">
            <feOffset dx="0" dy="2" in="SourceAlpha" result="shadowOffsetOuter1"></feOffset>
            <feGaussianBlur stdDeviation="4" in="shadowOffsetOuter1" result="shadowBlurOuter1"></feGaussianBlur>
            <feColorMatrix values="0 0 0 0 0   0 0 0 0 0   0 0 0 0 0  0 0 0 0.259963768 0" type="matrix" in="shadowBlurOuter1"></feColorMatrix>
        </filter>
    </defs>
    <g id="Page-1" stroke="none" stroke-width="1" fill="none" fill-rule="evenodd">
        <g id="Apple-TV" transform="translate(-129.000000, -125.000000)">
            <g id="01-avatar-02" transform="translate(137.000000, 131.000000)">
                <mask id="mask-2" fill="white">
                    <use xlink:href="#path-1"></use>
                </mask>
                <g id="Mask">
                    <use fill="black" fill-opacity="1" filter="url(#filter-3)" xlink:href="#path-1"></use>
                    <use fill="#FFFFFF" fill-rule="evenodd" xlink:href="#path-1"></use>
                </g>
                <g mask="url(#mask-2)">
                    <g transform="translate(14.000000, 14.000000)">
                        <g>
                            <ellipse id="Oval" fill="#454DFF" fill-rule="nonzero" cx="72.3251773" cy="72.1106007" rx="72.3251773" ry="72.0696113"></ellipse>
                            <path d="M78.397695,43.6024735 L60.4320922,36.6189046 C73.3124113,8.95106007 132.150532,20.1514134 138.793794,49.9097173 C142.825944,67.944903 139.706944,86.8350995 130.088652,102.632332 C114.246631,128.722085 74.1865248,119.832509 70.8340426,89.5208481 C69.0992146,73.813632 71.7150725,57.9329526 78.397695,43.6024735 Z" id="Shape" fill="#2433E2" fill-rule="nonzero"></path>
                            <path d="M70.7157801,122.384099 C70.7157801,122.384099 57.7480496,106.500707 52.5342199,121.282509 C47.3203901,136.064311 46.2765957,139.363958 46.2765957,139.363958 C46.2765957,139.363958 72.8496454,151.194523 98.4200355,139.363958 C98.4200355,139.363958 97.8441489,97.3498233 76.0684397,122.394346 L70.7157801,122.384099 Z" id="Shape" fill="#FFFFFF" fill-rule="nonzero"></path>
                            <path d="M48.2716312,63.185159 L40.7079787,35.9067138 C40.7079787,35.9067138 40.3737589,28.3646643 48.2716312,29.7583039 C56.1695035,31.1519435 65.6407801,25.3416961 73.3792553,26.9300353 C81.1177305,28.5183746 89.9308511,24.4553004 96.260461,25.1623675 C102.590071,25.8694346 106.857801,29.7736749 104.965603,34.0007067 C103.073404,38.2277385 101.962766,47.3478799 102.595213,52.1641343 C103.22766,56.9803887 98.3326241,63.1646643 98.3326241,63.1646643 C98.3326241,63.1646643 52.3799645,69.5487633 48.2716312,63.185159 Z" id="Shape" fill="#CCA269" fill-rule="nonzero"></path>
                            <path d="M73.0141844,39.2114841 C73.0141844,39.2114841 70.227305,29.819788 75.9141844,29.6660777 C81.6010638,29.5123675 81.5033688,27.0632509 83.1744681,26.7763251 C84.8455674,26.4893993 94.5276596,21.5911661 99.9163121,24.5014134 C105.304965,27.4116608 108.446631,26.6738516 106.549291,33.9136042 C104.65195,41.1533569 103.351064,45.6416961 103.541312,49.6484099 C103.73156,53.6551237 103.176241,54.7720848 100.281383,60.2492933 C97.3865248,65.7265018 98.3326241,63.185159 98.3326241,63.185159 L96.2758865,63.4977032 L99.7157801,43.8791519 C99.7157801,43.8791519 100.872695,39.2114841 94.3991135,39.2114841 C87.9255319,39.2114841 74.8498227,40.7280919 73.0141844,39.2114841 Z" id="Shape" fill="#896A45" fill-rule="nonzero"></path>
                            <path d="M73.0141844,39.2114841 L50.2409574,39.2114841 C49.0617181,39.2114444 47.9430201,39.7318567 47.1858468,40.6327053 C46.4286734,41.533554 46.110793,42.7223139 46.3177305,43.8791519 L55.5319149,95.1159011 C55.8710772,97.0093982 57.5249012,98.3873947 59.4551418,98.3848057 L86.5680851,98.3848057 C88.4971448,98.3869932 90.1492721,97.0086039 90.4861702,95.1159011 L99.7003546,43.8791519 C99.9090349,42.7229006 99.5925044,41.5339616 98.8360895,40.6328343 C98.0796746,39.731707 96.9612364,39.2111484 95.7822695,39.2114841 L73.0141844,39.2114841 Z" id="Shape" fill="#FFFFFF" fill-rule="nonzero"></path>
                            <path d="M73.0141844,39.2114222 L73.0141844,98.3745594 L85.9150709,98.3745583 C88.2234568,98.3761025 90.2011873,96.7291406 90.6095745,94.4651943 L99.8648936,42.9978799 C100.034555,42.0565506 99.7751912,41.0887987 99.157145,40.3570909 C98.5390987,39.6253831 97.6264302,39.2055604 96.6666667,39.2114841 L73.0141844,39.2114222 Z" id="Shape" fill="#FFF5E6" fill-rule="nonzero"></path>
                            <ellipse id="Oval" fill="#775123" fill-rule="nonzero" cx="62.6842199" cy="55.9454064" rx="2.25212766" ry="2.24416961"></ellipse>
                            <ellipse id="Oval" fill="#775123" fill-rule="nonzero" cx="81.8787234" cy="55.9454064" rx="2.25212766" ry="2.24416961"></ellipse>
                            <path d="M53.7785461,85.345053 L55.4702128,95.8537102 C55.7785739,97.7889554 57.4527136,99.2138967 59.4191489,99.214841 L86.4858156,99.214841 C88.661985,99.2132368 90.5054432,97.6165588 90.8101064,95.4694346 L92.2446809,85.345053 L53.7785461,85.345053 Z" id="Shape" fill="#CCA269" fill-rule="nonzero"></path>
                            <path d="M57.5886525,49.6484099 C57.5886525,49.6484099 61.5375887,43.8279152 66.4326241,48.5468198 C66.4326241,48.5468198 61.3781915,46.0310954 57.5886525,49.6484099 Z" id="Shape" fill="#CCA269" fill-rule="nonzero"></path>
                            <path d="M87.5913121,49.6484099 C87.5913121,49.6484099 83.6475177,43.8279152 78.7524823,48.5468198 C78.7524823,48.5468198 83.8120567,46.0310954 87.5913121,49.6484099 Z" id="Shape" fill="#CCA269" fill-rule="nonzero"></path>
                            <ellipse id="Oval" fill="#FFFFFF" fill-rule="nonzero" cx="50.2718085" cy="67.4992933" rx="4.01578014" ry="4.00159011"></ellipse>
                            <ellipse id="Oval" fill="#FFF5E6" fill-rule="nonzero" cx="96.260461" cy="67.4992933" rx="4.01578014" ry="4.00159011"></ellipse>
                            <ellipse id="Oval" fill="#FFF5E6" fill-rule="nonzero" cx="73.3792553" cy="74.8261484" rx="5.36808511" ry="5.34911661"></ellipse>
                            <path d="M49.4234043,66.0134276 C49.3627355,66.3333885 49.3627355,66.6618412 49.4234043,66.9818021 C49.464539,67.2174912 49.5005319,67.4224382 49.531383,67.6683746 C49.5623418,67.9387916 49.5760809,68.210891 49.5725177,68.4830389 C49.5753035,68.8537283 49.5250949,69.2229239 49.4234043,69.5795053 C49.0333699,69.4612562 48.6889114,69.2270655 48.4361702,68.9083039 C48.191961,68.5976691 48.0404924,68.2247748 47.9991135,67.8323322 C47.9445061,67.3994403 48.0426648,66.9610982 48.276773,66.5924028 C48.5121056,66.1921898 48.9603598,65.9658501 49.4234043,66.0134276 Z" id="Shape" fill="#775123" fill-rule="nonzero"></path>
                            <path d="M97.3865248,69.2823322 C97.3418808,68.9603343 97.2678748,68.6430618 97.1654255,68.3344523 C97.1005499,68.0873961 97.0558414,67.8355142 97.0317376,67.5812721 C97.0093258,67.3026389 97.0196798,67.0223503 97.0625887,66.7461131 C97.1112001,66.3886414 97.2207555,66.0420755 97.3865248,65.7213781 C97.7370105,65.884211 98.0332478,66.1438365 98.2400709,66.4694346 C98.4285301,66.7713825 98.5413929,67.1140461 98.5691489,67.4685512 C98.6004693,67.846917 98.5257045,68.2265153 98.3531915,68.5650177 C98.1780269,68.9553221 97.8119812,69.2269462 97.3865248,69.2823322 Z" id="Shape" fill="#775123" fill-rule="nonzero"></path>
                            <path d="M73.0141844,85.345053 C73.0141844,85.345053 74.8086879,94.1731449 72.8342199,99.214841 L85.0718085,99.214841 C85.0718085,99.214841 90.1365248,100.239576 90.8152482,95.4694346 L92.2498227,85.345053 L73.0141844,85.345053 Z" id="Shape" fill="#896A45" fill-rule="nonzero"></path>
                            <polygon id="Shape" fill="#FFFFFF" fill-rule="nonzero" points="68.0111702 90.5404594 78.7524823 88.1784452 78.7524823 91.3243816"></polygon>
                            <path d="M65.6973404,58.1844523 C65.6973404,58.1844523 62.7304965,62.1860424 58.1028369,60.9256184 C58.1028369,60.9256184 62.8539007,66.0390459 65.6973404,58.1844523 Z" id="Shape" fill="#FFF5E6" fill-rule="nonzero"></path>
                            <polygon id="Shape" fill="#FFFFFF" fill-rule="nonzero" points="68.5819149 99.3070671 70.7157801 122.384099 73.3792553 122.384099 73.3792553 99.214841"></polygon>
                            <polygon id="Shape" fill="#FFF5E6" fill-rule="nonzero" points="78.1765957 99.3070671 76.0478723 122.384099 73.3792553 122.384099 73.3792553 99.214841"></polygon>
                            <path d="M51.2539007,118.438869 C51.2539007,118.438869 77.2562057,131.760424 91.8333333,115.738693 C91.8333333,115.738693 92.3937943,115.549117 93.6998227,117.690813 C93.6998227,117.690813 76.8294326,135.690283 50.2718085,120.329505 L51.2539007,118.438869 Z" id="Shape" fill="#454DFF" fill-rule="nonzero"></path>
                            <path d="M49.9324468,126.821201 C49.9324468,126.821201 81.3234043,140.142756 98.9187943,124.126148 C98.9187943,124.126148 99.5975177,123.936572 101.176064,126.078269 C101.176064,126.078269 80.804078,144.077739 48.7292553,128.716961 L49.9324468,126.821201 Z" id="Shape" fill="#454DFF" fill-rule="nonzero"></path>
                            <path d="M46.6930851,132.974735 C46.6930851,132.974735 80.0687943,146.29629 98.7748227,130.274558 C98.7748227,130.274558 99.4946809,130.090106 101.176064,132.226678 C101.176064,132.226678 79.518617,150.226148 45.4281915,134.865371 L46.6930851,132.974735 Z" id="Shape" fill="#454DFF" fill-rule="nonzero"></path>
                            <path d="M62.185461,115.369788 C62.185461,115.369788 56.0152482,129.536749 55.3725177,142.094876 C55.3725177,142.094876 75.1840426,145.768551 88.5528369,142.735336 C88.5528369,142.735336 91.9567376,130.187456 84.033156,117.229682 C83.7350071,116.742833 83.2441011,116.404374 82.6817875,116.297971 C82.1194739,116.191567 81.5382304,116.327149 81.0817376,116.671201 L80.1613475,117.362898 C79.4271364,117.905899 79.2076328,118.905486 79.6471631,119.704417 C80.6292553,121.466961 81.9867021,124.746113 80.9120567,128.056007 C80.9120567,128.056007 70.9625887,132.933746 66.7,128.056007 C66.7,128.056007 62.8590426,123.618905 65.9647163,117.496113 C65.975,117.496113 65.0803191,114.165724 62.185461,115.369788 Z" id="Shape" fill="#F4E911" fill-rule="nonzero"></path>
                            <path d="M68.0111702,74.8056537 C68.0111702,74.8056537 68.4328014,80.0164311 73.3792553,80.1547703 C78.3257092,80.2931095 78.7524823,74.8056537 78.7524823,74.8056537 C78.7524823,74.8056537 72.7468085,79.8268551 68.0111702,74.8056537 Z" id="Shape" fill="#FFC7CF" fill-rule="nonzero"></path>
                            <ellipse id="Oval" fill="#FFE3E8" fill-rule="nonzero" cx="60.1544326" cy="70.4454064" rx="4.77677305" ry="2.9409894"></ellipse>
                            <ellipse id="Oval" fill="#FFE3E8" fill-rule="nonzero" cx="85.4985816" cy="70.4454064" rx="4.77677305" ry="2.9409894"></ellipse>
                            <ellipse id="Oval" fill="#775123" fill-rule="nonzero" cx="63.0647163" cy="135.695406" rx="2.63262411" ry="2.62332155"></ellipse>
                            <ellipse id="Oval" fill="#775123" fill-rule="nonzero" cx="81.8787234" cy="135.695406" rx="2.63262411" ry="2.62332155"></ellipse>
                        </g>
                    </g>
                </g>
            </g>
        </g>
    </g>
</svg>