<?xml version="1.0" encoding="UTF-8"?>
<svg width="51px" height="48px" viewBox="0 0 51 48" version="1.1" xmlns="http://www.w3.org/2000/svg" xmlns:xlink="http://www.w3.org/1999/xlink">
    <!-- Generator: Sketch 50.2 (55047) - http://www.bohemiancoding.com/sketch -->
    <title>bouee-verte_Plan de travail 1</title>
    <desc>Created with Sketch.</desc>
    <defs></defs>
    <g id="Page-1" stroke="none" stroke-width="1" fill="none" fill-rule="evenodd">
        <g id="Apple-TV" transform="translate(-148.000000, -136.000000)">
            <g id="bouee-verte_Plan-de-travail-1" transform="translate(148.000000, 136.000000)">
                <path d="M34,31.28 C37.7049183,26.2524456 37.4520456,19.333681 33.39,14.59 C31.089019,11.8877474 27.8080177,10.2112708 24.27,9.93 C21.8467787,10.1256199 19.5230843,10.9797158 17.55,12.4 C16.0552965,13.4684281 14.793126,14.8292588 13.84,16.4 C12.8541759,18.025398 12.2268516,19.8425927 12,21.73 C11.9361865,22.2576423 11.902798,22.7885203 11.9,23.32 C11.8991651,24.6244156 12.091243,25.9217837 12.47,27.17 C12.9596494,28.814019 13.7608624,30.3485457 14.83,31.69 C15.9692947,33.1237412 17.3879844,34.3110858 19,35.18 C20.6111217,36.0370063 22.3809464,36.5543397 24.2,36.7 C26.2475696,36.5547886 28.2332625,35.9351155 30,34.89 C31.5618777,33.9670129 32.9221805,32.7393397 34,31.28 Z" id="Shape"></path>
                <path d="M25,48 L26.08,48 C30.1458364,48.0076694 34.1460197,46.9749198 37.7,45 L37.01,44.1 C33.4310643,46.4581161 29.2815528,47.8055844 25,48 Z" id="Shape" fill="#40B294" fill-rule="nonzero"></path>
                <path d="M34.62,1.65 C31.9037647,0.623378241 29.0237705,0.0982028344 26.12,0.1 C25.76,0.1 25.4,0.1 25.04,0.0999954031 C28.2128431,0.248933709 31.3238561,1.03093696 34.19,2.4 L34.62,1.65 Z" id="Shape" fill="#40B294" fill-rule="nonzero"></path>
                <path d="M47.07,17.78 L49.07,17.34 C47.4125222,11.6436647 43.7039904,6.76308009 38.66,3.64 L38.12,4.75 C42.4891528,7.95803043 45.6436837,12.5506045 47.07,17.78 Z" id="Shape" fill="#40B294" fill-rule="nonzero"></path>
                <path d="M24.24,9.93 C23.89,9.93 23.52,9.93 23.16,9.93 C20.9472033,9.9235152 18.7678598,10.4700698 16.82,11.52 L17.52,12.44 C19.4888097,11.0054606 21.8128417,10.137407 24.24,9.93 Z" id="Shape" fill="#40B294" fill-rule="nonzero"></path>
                <path d="M18.61,36 C20.0696747,36.5240764 21.6090956,36.7913605 23.16,36.79 C23.52,36.79 23.89,36.79 24.24,36.7900052 C22.4007127,36.6218655 20.6163788,36.0736255 19,35.18 L18.61,36 Z" id="Shape" fill="#40B294" fill-rule="nonzero"></path>
                <path d="M13.81,16.42 L12.75,14.82 C10.995292,16.9631864 9.94729465,19.5971531 9.75,22.36 L12,21.73 C12.220426,19.8517798 12.8373795,18.0418224 13.81,16.42 Z" id="Shape" fill="#40B294" fill-rule="nonzero"></path>
                <path d="M12.47,27.17 L10.47,27.6 C11.1902904,29.755032 12.4502901,31.6897857 14.13,33.22 L14.87,31.69 C13.7866287,30.3517866 12.9717254,28.817052 12.47,27.17 Z" id="Shape" fill="#40B294" fill-rule="nonzero"></path>
                <path d="M50,21.7 L47.87,22.3 C47.87,22.88 47.94,23.46 47.94,24.05 C47.9501064,30.5459836 45.3100811,36.765031 40.63,41.27 L41.44,42.49 C46.93901,37.9467105 50.1191007,31.1830574 50.11,24.05 C50.07,23.26 50,22.48 50,21.7 Z" id="Shape" fill="#40B294" fill-rule="nonzero"></path>
                <path d="M9.76,22.36 C9.95729465,19.5971531 11.005292,16.9631864 12.76,14.82 L8.28,8.08 L7.39,6.75 C2.66527153,11.2639516 -0.00521696261,17.5155688 3.38813179e-21,24.05 C3.38813179e-21,24.4 3.38813179e-21,24.75 -7.62941413e-06,25.1 L2.16,24.49 L9.76,22.36 Z" id="Shape" fill="#70EFD1" fill-rule="nonzero"></path>
                <path d="M14.09,33.22 C12.4102901,31.6897857 11.1502904,29.755032 10.43,27.6 L2.74,29.23 L0.66,29.67 C1.95652061,34.9722582 5.02175352,39.6741632 9.35,43 L9.98,41.7 L14.09,33.22 Z" id="Shape" fill="#70EFD1" fill-rule="nonzero"></path>
                <path d="M30.57,35.69 L29.97,34.89 C28.2241141,35.9248504 26.2635478,36.5441567 24.24,36.7 C23.89,36.7 23.52,36.7 23.16,36.7 C21.6143488,36.7302846 20.0750732,36.4934729 18.61,36 L13.73,44.59 L13.21,45.5 C16.5596312,47.1713465 20.2566528,48.0279316 24,48 L25,48 C29.2743156,47.8157525 33.4198491,46.4822726 37,44.14 L30.57,35.69 Z" id="Shape" fill="#70EFD1" fill-rule="nonzero"></path>
                <path d="M36.4,25.52 C36.0699605,27.6036846 35.2471447,29.5784426 34,31.28 L35,32.72 L40.67,41.27 C45.3206512,36.7514912 47.9310578,30.5341741 47.9,24.05 C47.9,23.46 47.9,22.88 47.83,22.3 L38.67,24.89 L36.4,25.52 Z" id="Shape" fill="#70EFD1" fill-rule="nonzero"></path>
                <path d="M16.82,11.48 C18.7678598,10.4300698 20.9472033,9.8835152 23.16,9.89 C23.52,9.89 23.89,9.89 24.24,9.89 C25.9450388,10.0271462 27.608181,10.488753 29.14,11.25 L29.55,10.53 L34.19,2.4 C31.3093819,1.03613049 28.1843499,0.26422378 25,0.13 C24.64,0.13 24.27,0.13 23.91,0.13 C19.3348726,0.117502939 14.8529384,1.42285326 11,3.89 L11.76,4.89 L16.82,11.48 Z" id="Shape" fill="#70EFD1" fill-rule="nonzero"></path>
                <path d="M33.36,14.59 C34.7201381,16.1732003 35.6894907,18.0536759 36.19,20.08 L38.25,19.64 L47.07,17.78 C45.6245127,12.5544817 42.4522736,7.97235853 38.07,4.78 L34.07,13.15 L33.36,14.59 Z" id="Shape" fill="#70EFD1" fill-rule="nonzero"></path>
                <path d="M38.12,4.75 L38.66,3.64 C37.3895134,2.85442014 36.0507558,2.18504134 34.66,1.64 L34.23,2.39 C35.5987957,3.0511172 36.9013682,3.84136689 38.12,4.75 Z" id="Shape" fill="#C7E5DD" fill-rule="nonzero"></path>
                <path d="M33.36,14.59 L34.07,13.12 L38.07,4.75 C36.8541313,3.84537431 35.5549429,3.05849474 34.19,2.4 L29.55,10.57 L29.14,11.29 C30.7532773,12.0965955 32.1882763,13.2187511 33.36,14.59 Z" id="Shape" fill="#FFFFFF" fill-rule="nonzero"></path>
                <path d="M47.83,22.3 L50,21.7 C49.8533672,20.2241175 49.5721986,18.7647184 49.16,17.34 L47.16,17.78 C47.5265795,19.261929 47.7509294,20.7754536 47.83,22.3 Z" id="Shape" fill="#C7E5DD" fill-rule="nonzero"></path>
                <path d="M38.25,19.64 L36.19,20.08 C36.6256569,21.8606846 36.6970857,23.7110293 36.4,25.52 L38.67,24.89 L47.83,22.3 C47.7214456,20.7725377 47.466952,19.2589706 47.07,17.78 L38.25,19.64 Z" id="Shape" fill="#FFFFFF" fill-rule="nonzero"></path>
                <path d="M37,44.12 L37.69,45.02 C38.9995566,44.2939352 40.2382909,43.4469089 41.39,42.49 L40.58,41.27 C39.4843708,42.3366415 38.2851038,43.2913653 37,44.12 Z" id="Shape" fill="#C7E5DD" fill-rule="nonzero"></path>
                <path d="M34,31.28 C32.9221805,32.7393397 31.5618777,33.9670129 30,34.89 L30.6,35.69 L37,44.12 C38.2851038,43.2913653 39.4843708,42.3366415 40.58,41.27 L34.91,32.72 L34,31.28 Z" id="Shape" fill="#FFFFFF" fill-rule="nonzero"></path>
                <path d="M14.83,31.69 L14.09,33.22 C15.3974267,34.43721 16.933903,35.3822109 18.61,36 L19.04,35.22 C17.4098579,34.3438746 15.9769434,33.1424048 14.83,31.69 Z" id="Shape" fill="#C7E5DD" fill-rule="nonzero"></path>
                <path d="M18.61,36 C16.937164,35.3941393 15.4009261,34.46288 14.09,33.26 L10,41.74 L9.35,43 C10.5556834,43.9291596 11.8483616,44.7395952 13.21,45.42 L13.73,44.51 L18.61,36 Z" id="Shape" fill="#FFFFFF" fill-rule="nonzero"></path>
                <path d="M11.9,23.32 C11.902798,22.7885203 11.9361865,22.2576423 12,21.73 L9.76,22.36 C9.76,22.6733333 9.76,23.0066667 9.76,23.36 C9.75484673,24.8155759 9.99139633,26.2619077 10.46,27.64 L12.46,27.21 C12.0807065,25.948445 11.8919577,24.6373154 11.9,23.32 Z" id="Shape" fill="#C7E5DD" fill-rule="nonzero"></path>
                <path d="M10.43,27.6 C9.96139633,26.2219077 9.72484673,24.7755759 9.73,23.32 C9.73,22.9866667 9.73,22.6533333 9.73,22.32 L2.18,24.49 L0,25.1 C0.0686615576,26.6401146 0.282950615,28.1702724 0.64,29.67 L2.72,29.23 L10.43,27.6 Z" id="Shape" fill="#FFFFFF" fill-rule="nonzero"></path>
                <path d="M17.52,12.4 L16.82,11.48 C15.2582911,12.3169461 13.8756041,13.4516328 12.75,14.82 L13.81,16.42 C14.7609543,14.842047 16.0232651,13.47426 17.52,12.4 Z" id="Shape" fill="#F0FFFB" fill-rule="nonzero"></path>
                <path d="M12.75,14.82 C13.8756041,13.4516328 15.2582911,12.3169461 16.82,11.48 L11.82,4.88 L11.06,3.88 C9.74571242,4.71428736 8.51648616,5.6755624 7.39,6.75 L8.28,8.08 L12.75,14.82 Z" id="Shape" fill="#FFFFFF" fill-rule="nonzero"></path>
            </g>
        </g>
    </g>
</svg>