<?xml version="1.0" encoding="UTF-8"?>
<svg width="50px" height="58px" viewBox="0 0 50 58" version="1.1" xmlns="http://www.w3.org/2000/svg" xmlns:xlink="http://www.w3.org/1999/xlink">
    <!-- Generator: Sketch 50.2 (55047) - http://www.bohemiancoding.com/sketch -->
    <title>bouton-envoie</title>
    <desc>Created with Sketch.</desc>
    <defs></defs>
    <g id="Page-1" stroke="none" stroke-width="1" fill="none" fill-rule="evenodd">
        <g id="Apple-TV" transform="translate(-1068.000000, -675.000000)">
            <g id="bouton-envoie" transform="translate(1068.000000, 675.000000)">
                <g id="bouton-send-04" stroke-width="1" fill-rule="evenodd" transform="translate(25.000000, 29.000000) rotate(90.000000) translate(-25.000000, -29.000000) translate(-4.000000, 19.000000)" fill="#5FD1E0">
                    <path d="M52.9267953,1.31372927e-06 L11.1417758,1.31372927e-06 C8.35028613,0.00799536615 6.09040392,2.30301037 6.08647225,5.1338961 L6.08647225,5.80921747 L1.75079763,5.80921747 C1.28398083,5.80920164 0.836489397,5.99824885 0.507747361,6.33435643 C0.179005325,6.67046402 -0.0037598875,7.12579452 5.86550646e-05,7.5991822 L5.86550646e-05,10.9757891 C5.86550646e-05,12.0906878 0.891287469,12.9944917 1.99067393,12.9944917 L6.08647225,12.9944917 L6.08647225,14.6973182 C6.08645485,17.5316312 8.34691557,19.8321042 11.1417758,19.8421053 L52.9267953,19.8421053 C55.7286489,19.8421053 58,17.5387056 58,14.6973182 L58,5.1338961 C57.996048,2.295932 55.7252753,-0.00200573001 52.9267953,1.31372927e-06 Z" id="Shape" fill-rule="nonzero"></path>
                </g>
                <text id="ENVOIE" font-family="CourierNewPSMT, Courier New" font-size="14" font-weight="normal" fill="#757575">
                    <tspan x="0" y="40">ENVOIE</tspan>
                </text>
            </g>
        </g>
    </g>
</svg>