<?xml version="1.0" encoding="UTF-8"?>
<svg width="236px" height="247px" viewBox="0 0 236 247" version="1.1" xmlns="http://www.w3.org/2000/svg" xmlns:xlink="http://www.w3.org/1999/xlink">
    <!-- Generator: Sketch 50.2 (55047) - http://www.bohemiancoding.com/sketch -->
    <title>Group</title>
    <desc>Created with Sketch.</desc>
    <defs>
        <circle id="path-1" cx="24.5" cy="24.5" r="24.5"></circle>
        <filter x="-14.3%" y="-10.2%" width="128.6%" height="128.6%" filterUnits="objectBoundingBox" id="filter-3">
            <feOffset dx="0" dy="2" in="SourceAlpha" result="shadowOffsetOuter1"></feOffset>
            <feGaussianBlur stdDeviation="2" in="shadowOffsetOuter1" result="shadowBlurOuter1"></feGaussianBlur>
            <feColorMatrix values="0 0 0 0 0   0 0 0 0 0   0 0 0 0 0  0 0 0 0.14 0" type="matrix" in="shadowBlurOuter1"></feColorMatrix>
        </filter>
        <circle id="path-4" cx="24.5" cy="24.5" r="24.5"></circle>
        <filter x="-14.3%" y="-10.2%" width="128.6%" height="128.6%" filterUnits="objectBoundingBox" id="filter-6">
            <feOffset dx="0" dy="2" in="SourceAlpha" result="shadowOffsetOuter1"></feOffset>
            <feGaussianBlur stdDeviation="2" in="shadowOffsetOuter1" result="shadowBlurOuter1"></feGaussianBlur>
            <feColorMatrix values="0 0 0 0 0   0 0 0 0 0   0 0 0 0 0  0 0 0 0.14 0" type="matrix" in="shadowBlurOuter1"></feColorMatrix>
        </filter>
        <circle id="path-7" cx="24.5" cy="24.5" r="24.5"></circle>
        <filter x="-14.3%" y="-10.2%" width="128.6%" height="128.6%" filterUnits="objectBoundingBox" id="filter-9">
            <feOffset dx="0" dy="2" in="SourceAlpha" result="shadowOffsetOuter1"></feOffset>
            <feGaussianBlur stdDeviation="2" in="shadowOffsetOuter1" result="shadowBlurOuter1"></feGaussianBlur>
            <feColorMatrix values="0 0 0 0 0   0 0 0 0 0   0 0 0 0 0  0 0 0 0.14 0" type="matrix" in="shadowBlurOuter1"></feColorMatrix>
        </filter>
    </defs>
    <g id="Page-1" stroke="none" stroke-width="1" fill="none" fill-rule="evenodd">
        <g id="Apple-TV" transform="translate(-119.000000, -384.000000)">
            <g id="Group" transform="translate(119.000000, 384.000000)">
                <rect id="Rectangle-2" fill="#FFFFFF" x="0" y="0" width="236" height="75" rx="37.5"></rect>
                <rect id="Rectangle-2-Copy" fill="#FFFFFF" x="0" y="83" width="236" height="75" rx="37.5"></rect>
                <rect id="Rectangle-2-Copy-2" fill="#FFFFFF" x="0" y="171" width="236" height="75" rx="37.5"></rect>
                <g id="name-users" transform="translate(0.000000, 17.000000)">
                    <text id="Marie" font-family="CourierNewPSMT, Courier New" font-size="20" font-weight="normal" fill="#C4C4C4">
                        <tspan x="149" y="29">Marie</tspan>
                    </text>
                    <g id="03-avatar-" stroke-width="1" fill-rule="evenodd" transform="translate(7.000000, 0.000000)">
                        <mask id="mask-2" fill="white">
                            <use xlink:href="#path-1"></use>
                        </mask>
                        <g id="Mask">
                            <use fill="black" fill-opacity="1" filter="url(#filter-3)" xlink:href="#path-1"></use>
                            <use fill="#FFFFFF" fill-rule="evenodd" xlink:href="#path-1"></use>
                        </g>
                        <g mask="url(#mask-2)" id="03-avatar-06">
                            <g transform="translate(3.000000, 3.000000)">
                                <g>
                                    <ellipse id="Oval" fill="#E9F6F8" fill-rule="nonzero" cx="21.5" cy="21.5301274" rx="21.5" ry="21.4315287"></ellipse>
                                    <path d="M21.7198083,9.56955414 L16.3798403,7.49350318 C20.2086262,-0.728535032 37.6984984,2.60191083 39.6740256,11.4442994 C40.8732065,16.8067894 39.9484106,22.42375 37.0926518,27.1228662 C32.3846326,34.8806688 20.4696486,32.2376752 19.4791374,23.2254777 C18.9611404,18.5549522 19.7360519,13.832201 21.7198083,9.56955414 Z" id="Shape" fill="#9DD0D6" fill-rule="nonzero"></path>
                                    <ellipse id="Oval" fill="#701873" fill-rule="nonzero" cx="21.3117891" cy="18.2599363" rx="8.57252396" ry="13.0670701"></ellipse>
                                    <path d="M22.1745367,5.25859873 C22.1745367,5.25859873 29.6672524,22.1025478 21.3117891,31.3270064 C21.3117891,31.3270064 29.5738339,32.6375478 29.8843131,18.2599363 C30.1947923,3.88232484 22.1745367,5.25859873 22.1745367,5.25859873 Z" id="Shape" fill="#9C36A3" fill-rule="nonzero"></path>
                                    <ellipse id="Oval" fill="#701873" fill-rule="nonzero" transform="translate(12.944484, 16.626083) rotate(-84.080000) translate(-12.944484, -16.626083) " cx="12.9444845" cy="16.626083" rx="2.37530351" ry="1.19687898"></ellipse>
                                    <ellipse id="Oval" fill="#9C36A3" fill-rule="nonzero" transform="translate(29.893027, 16.036306) rotate(-11.790000) translate(-29.893027, -16.036306) " cx="29.8930271" cy="16.0363062" rx="1.29" ry="2.69640127"></ellipse>
                                    <ellipse id="Oval" fill="#FFFFFF" fill-rule="nonzero" cx="12.5235783" cy="16.5015924" rx="1" ry="1.3256051"></ellipse>
                                    <ellipse id="Oval" fill="#FFFFFF" fill-rule="nonzero" cx="30.4654313" cy="15.9154777" rx="1" ry="1.3256051"></ellipse>
                                    <path d="M12.6994249,18.9802548 C12.6994249,18.9802548 13.7119169,24.9372611 8.78271565,26.0588217 C3.85351438,27.1803822 3.1501278,31.6734713 5.68341853,33.7796497 C8.21670927,35.885828 9.68942492,38.8328344 9.68942492,38.8328344 C9.68942492,38.8328344 10.6469649,35.8789809 8.51757188,32.7964013 C6.38817891,29.7138217 14.6996805,29.567293 14.9744409,25.0742038 C15.2492013,20.5811146 15.3467412,18.9241083 12.6994249,18.9802548 Z" id="Shape" fill="#701873" fill-rule="nonzero"></path>
                                    <path d="M14.5155911,15.6278981 C14.5155911,15.6278981 14.7779872,19.5252866 12.6994249,18.9802548 C12.6994249,18.9802548 13.9990415,19.0911783 14.5155911,15.6278981 Z" id="Shape" fill="#9C36A3" fill-rule="nonzero"></path>
                                    <path d="M13.1884984,14.2694268 C13.1884984,14.2694268 10.1249201,6.42398089 13.6130032,4.53964968 C17.1010863,2.65531847 20.4188179,-0.0862738854 22.1745367,4.18907643 C23.9302556,8.46442675 13.1884984,14.2694268 13.1884984,14.2694268 Z" id="Shape" fill="#701873" fill-rule="nonzero"></path>
                                    <path d="M19.9091374,1.91719745 C19.9091374,1.91719745 28.5750799,1.6433121 27.1696805,8.09605096 C25.7642812,14.5487898 21.8434505,4.21783439 19.9091374,1.91719745 Z" id="Shape" fill="#9C36A3" fill-rule="nonzero"></path>
                                    <path d="M30.4461981,18.6748726 C30.4461981,18.6748726 28.8113738,19.1514331 28.5640895,15.9154777 C28.5640895,15.9154777 29.0078275,18.4872611 30.4461981,18.6748726 Z" id="Shape" fill="#701873" fill-rule="nonzero"></path>
                                    <path d="M19.2098722,18.6995223 C19.2098722,18.6995223 19.0285304,30.5053503 14.3205112,32.7964013 C9.61249201,35.0874522 14.5623003,41.2197452 18.0833546,40.6582803 C21.6044089,40.0968153 23.4700319,39.3942994 23.2392332,37.9906369 C23.2392332,37.9906369 19.4022045,41.0800637 17.8250799,38.8328344 C16.2479553,36.5856051 19.2469649,32.7292994 19.8596805,31.3598726 C20.4723962,29.9904459 21.8915335,21.3096497 19.2098722,18.6995223 Z" id="Shape" fill="#701873" fill-rule="nonzero"></path>
                                    <path d="M25.7093291,19.8991401 C25.7093291,19.8991401 29.267476,28.2649682 26.9457508,31.5200955 C24.6240256,34.7752229 26.694345,39.4093631 30.2428754,37.4442357 C33.7914058,35.4791083 38.686262,32.1623567 37.9265495,28.9058599 C37.9265495,28.9058599 33.4493291,35.8995223 31.8570927,34.0754459 C30.2648562,32.2513694 34.2942173,30.5683439 31.8570927,26.6353503 C29.4199681,22.7023567 28.4761661,21.1658599 25.7093291,19.8991401 Z" id="Shape" fill="#9C36A3" fill-rule="nonzero"></path>
                                    <path d="M28.5640895,19.8991401 C28.5640895,19.8991401 30.3321725,18.631051 35.2613738,20.8002229 C40.1905751,22.9693949 40.7469649,11.2142357 33.8532268,8.09605096 C33.8532268,8.09605096 41.598722,8.35076433 40.6137061,16.5015924 C39.6286901,24.6524204 36.8178914,29.9904459 33.8532268,26.0588217 C30.8885623,22.1271975 26.6861022,22.6352548 26.6861022,22.6352548 C26.6861022,22.6352548 26.6517572,19.6362102 28.5640895,19.8991401 Z" id="Shape" fill="#9C36A3" fill-rule="nonzero"></path>
                                    <ellipse id="Oval" fill="#FFFFFF" fill-rule="nonzero" opacity="0.3" transform="translate(26.026238, 6.287983) rotate(-27.332359) translate(-26.026238, -6.287983) " cx="26.0262377" cy="6.28798312" rx="1" ry="1.0481758"></ellipse>
                                    <ellipse id="Oval" fill="#FFFFFF" fill-rule="nonzero" opacity="0.3" transform="translate(24.488358, 9.979848) rotate(-27.520000) translate(-24.488358, -9.979848) " cx="24.488358" cy="9.97984767" rx="1" ry="1"></ellipse>
                                    <ellipse id="Oval" fill="#FFFFFF" fill-rule="nonzero" opacity="0.3" transform="translate(17.784520, 7.484774) rotate(-72.520000) translate(-17.784520, -7.484774) " cx="17.7845196" cy="7.48477396" rx="1" ry="1"></ellipse>
                                    <ellipse id="Oval" fill="#FFFFFF" fill-rule="nonzero" opacity="0.3" transform="translate(16.955137, 12.779810) rotate(-5.800000) translate(-16.955137, -12.779810) " cx="16.9551368" cy="12.7798098" rx="1" ry="1"></ellipse>
                                    <ellipse id="Oval" fill="#FFFFFF" fill-rule="nonzero" opacity="0.3" transform="translate(20.926075, 16.624736) rotate(-72.520000) translate(-20.926075, -16.624736) " cx="20.9260746" cy="16.6247361" rx="1" ry="1"></ellipse>
                                    <ellipse id="Oval" fill="#FFFFFF" fill-rule="nonzero" opacity="0.3" transform="translate(26.651247, 17.826535) rotate(-27.520000) translate(-26.651247, -17.826535) " cx="26.6512466" cy="17.8265349" rx="1.04958466" ry="1"></ellipse>
                                    <ellipse id="Oval" fill="#FFFFFF" fill-rule="nonzero" opacity="0.3" transform="translate(16.429061, 18.491979) rotate(-72.520000) translate(-16.429061, -18.491979) " cx="16.4290608" cy="18.4919787" rx="1" ry="1"></ellipse>
                                    <ellipse id="Oval" fill="#FFFFFF" fill-rule="nonzero" opacity="0.3" transform="translate(19.570616, 27.631941) rotate(-72.520000) translate(-19.570616, -27.631941) " cx="19.5706158" cy="27.6319409" rx="1" ry="1"></ellipse>
                                    <path d="M29.5051438,22.9666561 C29.5051438,22.9666561 32.6360383,22.5065287 34.0386901,24.3360828 C35.4413419,26.1656369 40.0586901,19.9032484 40.0586901,19.9032484 C40.0586901,19.9032484 39.289361,23.6678025 38.1188818,25.5699363 C36.9484026,27.4720701 36.0224601,28.4690127 34.2117891,26.5025159 C32.4011182,24.5360191 30.4585623,22.9105096 29.5051438,22.9666561 Z" id="Shape" fill="#701873" fill-rule="nonzero"></path>
                                    <path d="M30.7113419,24.8003185 C30.7113419,24.8003185 32.3269329,29.2454777 30.8858147,31.7255096 C29.4446965,34.2055414 28.5036422,37.2032166 30.7113419,36.0775478 C32.9190415,34.951879 37.7300958,32.2431529 37.9265495,28.9058599 C37.9265495,28.9058599 33.7460703,34.6081529 31.8570927,34.0754459 C29.968115,33.5427389 36.2972204,27.3638854 30.7113419,24.8003185 Z" id="Shape" fill="#701873" fill-rule="nonzero"></path>
                                    <path d="M19.0738658,32.538949 C19.1032213,32.4934115 19.09893,32.4340308 19.0633298,32.3931577 C19.0277297,32.3522845 18.9693516,32.3397133 18.92,32.362293 C17.5461981,33.016879 14.0883387,34.9888535 15.8770288,37.5277707 C18.0833546,40.6582803 21.0713738,41.1211465 23.2392332,37.9906369 C23.2392332,37.9906369 19.4599042,39.3135032 18.7798722,37.913949 C18.178147,36.6759873 18.1877636,33.8631847 19.0738658,32.538949 Z" id="Shape" fill="#9C36A3" fill-rule="nonzero"></path>
                                    <path d="M13.455016,27.8253822 C13.455016,27.8253822 8.6013738,28.0102548 7.42677316,29.8918471 C6.25217252,31.7734395 7.2399361,33.5975159 7.94332268,34.2986624 C8.64670927,34.9998089 9.7457508,37.9865287 9.68942492,38.8328344 C9.63309904,39.6791401 10.9134824,36.1172611 9.07670927,33.7344586 C7.2399361,31.3516561 13.5209585,29.0729299 13.455016,27.8253822 Z" id="Shape" fill="#9C36A3" fill-rule="nonzero"></path>
                                    <ellipse id="Oval" fill="#FFFFFF" fill-rule="nonzero" opacity="0.63" cx="9.9628115" cy="30.5601274" rx="1" ry="1"></ellipse>
                                    <ellipse id="Oval" fill="#FFFFFF" fill-rule="nonzero" opacity="0.63" cx="10.0864537" cy="36.3199363" rx="1" ry="1"></ellipse>
                                    <ellipse id="Oval" fill="#FFFFFF" fill-rule="nonzero" opacity="0.63" cx="8.69067093" cy="32.0514331" rx="1" ry="1"></ellipse>
                                    <ellipse id="Oval" fill="#FFFFFF" fill-rule="nonzero" opacity="0.63" cx="9.26354633" cy="34.185" rx="1" ry="1"></ellipse>
                                    <ellipse id="Oval" fill="#FFFFFF" fill-rule="nonzero" opacity="0.63" cx="12.0427476" cy="29.2180892" rx="1" ry="1"></ellipse>
                                    <ellipse id="Oval" fill="#FFFFFF" fill-rule="nonzero" opacity="0.63" cx="8.69067093" cy="29.0044586" rx="1" ry="1"></ellipse>
                                    <ellipse id="Oval" fill="#FFFFFF" fill-rule="nonzero" opacity="0.63" cx="7.29351438" cy="30.4683758" rx="1" ry="1"></ellipse>
                                    <ellipse id="Oval" fill="#FFFFFF" fill-rule="nonzero" opacity="0.63" cx="7.29351438" cy="32.3499682" rx="1" ry="1"></ellipse>
                                    <ellipse id="Oval" fill="#FFFFFF" fill-rule="nonzero" opacity="0.63" cx="10.0864537" cy="27.8253822" rx="1" ry="1"></ellipse>
                                    <ellipse id="Oval" fill="#000000" fill-rule="nonzero" cx="30.848722" cy="15.4101592" rx="1" ry="1"></ellipse>
                                    <ellipse id="Oval" fill="#000000" fill-rule="nonzero" cx="12.740639" cy="15.9154777" rx="1" ry="1"></ellipse>
                                    <ellipse id="Oval" fill="#FFFFFF" fill-rule="nonzero" opacity="0.63" cx="18.5229712" cy="33.7673248" rx="1" ry="1"></ellipse>
                                    <ellipse id="Oval" fill="#FFFFFF" fill-rule="nonzero" opacity="0.63" cx="16.9540895" cy="33.7673248" rx="1" ry="1"></ellipse>
                                    <ellipse id="Oval" fill="#FFFFFF" fill-rule="nonzero" opacity="0.63" cx="17.6519808" cy="35.9022611" rx="1" ry="1"></ellipse>
                                    <ellipse id="Oval" fill="#FFFFFF" fill-rule="nonzero" opacity="0.63" transform="translate(16.672007, 37.913279) rotate(-45.000000) translate(-16.672007, -37.913279) " cx="16.6720071" cy="37.9132786" rx="1" ry="1"></ellipse>
                                    <ellipse id="Oval" fill="#FFFFFF" fill-rule="nonzero" opacity="0.63" cx="15.639361" cy="35.4613057" rx="1" ry="1"></ellipse>
                                    <ellipse id="Oval" fill="#FFFFFF" fill-rule="nonzero" opacity="0.63" transform="translate(18.689765, 37.913635) rotate(-45.000000) translate(-18.689765, -37.913635) " cx="18.6897648" cy="37.9136349" rx="1" ry="1"></ellipse>
                                    <ellipse id="Oval" fill="#FFFFFF" fill-rule="nonzero" opacity="0.63" transform="translate(20.408694, 39.210536) rotate(-45.000000) translate(-20.408694, -39.210536) " cx="20.4086942" cy="39.2105362" rx="1" ry="1"></ellipse>
                                    <ellipse id="Oval" fill="#FFFFFF" fill-rule="nonzero" opacity="0.63" cx="35.946901" cy="20.986465" rx="1" ry="1"></ellipse>
                                    <ellipse id="Oval" fill="#FFFFFF" fill-rule="nonzero" opacity="0.63" transform="translate(34.200346, 20.442767) rotate(-45.000000) translate(-34.200346, -20.442767) " cx="34.2003458" cy="20.4427667" rx="1" ry="1"></ellipse>
                                    <ellipse id="Oval" fill="#FFFFFF" fill-rule="nonzero" opacity="0.63" transform="translate(37.644086, 20.682599) rotate(-16.820000) translate(-37.644086, -20.682599) " cx="37.6440865" cy="20.6825993" rx="1" ry="1"></ellipse>
                                    <ellipse id="Oval" fill="#FFFFFF" fill-rule="nonzero" opacity="0.63" transform="translate(38.641344, 19.356101) rotate(-45.000000) translate(-38.641344, -19.356101) " cx="38.6413438" cy="19.3561005" rx="1" ry="1"></ellipse>
                                    <ellipse id="Oval" fill="#FFFFFF" fill-rule="nonzero" opacity="0.63" transform="translate(39.019776, 17.389796) rotate(-45.000000) translate(-39.019776, -17.389796) " cx="39.0197757" cy="17.3897958" rx="1" ry="1"></ellipse>
                                    <ellipse id="Oval" fill="#FFFFFF" fill-rule="nonzero" opacity="0.63" transform="translate(34.200257, 32.935958) rotate(-45.000000) translate(-34.200257, -32.935958) " cx="34.2002567" cy="32.9359582" rx="1" ry="1"></ellipse>
                                    <ellipse id="Oval" fill="#FFFFFF" fill-rule="nonzero" opacity="0.63" transform="translate(31.586444, 32.351801) rotate(-16.820000) translate(-31.586444, -32.351801) " cx="31.5864443" cy="32.3518009" rx="1" ry="1"></ellipse>
                                    <ellipse id="Oval" fill="#FFFFFF" fill-rule="nonzero" opacity="0.63" transform="translate(31.856880, 34.026671) rotate(-45.000000) translate(-31.856880, -34.026671) " cx="31.8568803" cy="34.026671" rx="1" ry="1"></ellipse>
                                    <ellipse id="Oval" fill="#FFFFFF" fill-rule="nonzero" opacity="0.63" transform="translate(32.453836, 30.468004) rotate(-45.000000) translate(-32.453836, -30.468004) " cx="32.4538357" cy="30.4680036" rx="1" ry="1"></ellipse>
                                </g>
                            </g>
                        </g>
                    </g>
                    <g id="bouee-red_Plan-de-travail-1" transform="translate(44.000000, 32.000000)" fill-rule="evenodd" stroke-width="1">
                        <g id="Shape">
                            <path d="M7.464,15 L7.8,15 C9.00787787,14.9986349 10.1954062,14.675937 11.25,14.0625 L11.046,13.784375 C9.97858805,14.517573 8.74118541,14.9375109 7.464,15 Z" fill="#DD1C12" fill-rule="nonzero"></path>
                            <path d="M10.32,0.60625 C9.51463743,0.289207776 8.66095466,0.126178082 7.8,0.125 C7.692,0.125 7.584,0.125 7.476,0.125 C8.42082151,0.171276408 9.34711532,0.414624059 10.2,0.840625 L10.32,0.60625 Z" fill="#DD1C12" fill-rule="nonzero"></path>
                            <path d="M14.031,5.625 L14.631,5.4875 C14.1368794,3.71598155 13.0308424,2.19762958 11.526,1.225 L11.364,1.5625 C12.669824,2.56215754 13.6103441,3.99480203 14.031,5.625 Z" fill="#DD1C12" fill-rule="nonzero"></path>
                            <path d="M7.227,3.17811898 C7.122,3.178125 7.011,3.178125 6.903,3.178125 C6.24344699,3.17695362 5.59396362,3.34662686 5.013,3.671875 L5.223,3.95625 C5.81035838,3.51132163 6.50336818,3.24223568 7.227,3.17811898 Z" fill="#DD1C12" fill-rule="nonzero"></path>
                            <path d="M5.547,11.2647909 C5.98179308,11.4394564 6.44066188,11.5285678 6.903,11.5281233 C7.011,11.5281233 7.122,11.5281233 7.227,11.528125 C6.68568036,11.4806857 6.15884786,11.3105207 5.679,11.028125 L5.547,11.2647909 Z" fill="#DD1C12" fill-rule="nonzero"></path>
                            <path d="M2.91,7.0375 L3.576,6.840625 C3.64303407,6.2582699 3.82702466,5.69714118 4.116,5.19375 L3.801,4.6875 C3.27725567,5.35564361 2.96588556,6.17687793 2.91,7.0375 Z" fill="#DD1C12" fill-rule="nonzero"></path>
                            <path d="M4.2,10.4125 L4.422,9.934375 C4.1016926,9.5188379 3.86222613,9.04224018 3.717,8.53125 L3.117,8.665625 C3.33218593,9.33304124 3.70453052,9.93363169 4.2,10.4125 Z" fill="#DD1C12" fill-rule="nonzero"></path>
                            <path d="M14.259,7.021875 C14.259,7.2 14.28,7.38125 14.28,7.5625 C14.2814525,9.57899045 13.4951612,11.509294 12.102,12.909375 L12.342,13.290625 C13.9816287,11.8790761 14.9300607,9.77824982 14.928,7.5625 C14.9280535,7.31930762 14.9160374,7.07627495 14.892,6.834375 L14.259,7.021875 Z" fill="#DD1C12" fill-rule="nonzero"></path>
                            <path d="M0.816,9.171875 L0.198,9.309375 C0.581325846,10.9598202 1.49484846,12.424138 2.787,13.459375 L2.973,13.05625 C1.88706947,12.0237987 1.13374282,10.6671908 0.816,9.171875 Z" fill="#FF341F" fill-rule="nonzero"></path>
                            <path d="M0.648,7.5625 C0.645985565,5.73180376 1.29467358,3.96514416 2.469,2.603125 L2.205,2.1875 C0.793943092,3.58870496 -0.00316929453,5.53177938 1.69406589e-21,7.5625 C1.69406589e-21,7.671875 1.69406589e-21,7.78125 -9.41478381e-06,7.875 L0.645,7.6875 C0.648,7.653125 0.648,7.609375 0.648,7.5625 Z" fill="#FF341F" fill-rule="nonzero"></path>
                            <path d="M3.801,4.6875 L2.469,2.603125 C1.29467358,3.96514416 0.645985565,5.73180376 0.648,7.5625 C0.648,7.609375 0.648,7.653125 0.647995322,7.7 L2.91,7.0375 C2.96588556,6.17687793 3.27725567,5.35564361 3.801,4.6875 Z" fill="#FF341F" fill-rule="nonzero"></path>
                            <path d="M3.108,8.665625 L0.816,9.171875 C1.13374282,10.6671908 1.88706947,12.0237987 2.973,13.05625 L4.2,10.4125 C3.70125188,9.93470215 3.32575502,9.33401894 3.108,8.665625 Z" fill="#FF341F" fill-rule="nonzero"></path>
                            <path d="M9.114,11.175 L8.934,10.928125 C8.41394851,11.2495229 7.82988593,11.4419864 7.227,11.490625 C7.122,11.490625 7.011,11.490625 6.903,11.490625 C6.44101549,11.4930465 5.98215702,11.4116211 5.547,11.25 L4.092,13.91875 L3.939,14.203125 C4.93156172,14.7256561 6.02788067,14.9985799 7.14,15 L7.464,15 C8.73535972,14.9408961 9.96821407,14.5275705 11.034,13.803125 L9.114,11.175 Z" fill="#FF341F" fill-rule="nonzero"></path>
                            <path d="M14.259,7.01875 L11.529,7.8125 L10.851,8.0125 C10.7485941,8.65990096 10.4997372,9.27261684 10.125,9.8 L10.425,10.246875 L12.117,12.9 C13.5023941,11.4995425 14.2829408,9.57343605 14.28,7.5625 C14.28,7.38125 14.271,7.1875 14.259,7.01875 Z" fill="#FF341F" fill-rule="nonzero"></path>
                            <path d="M7.464,0.134375 C7.356,0.134375 7.248,0.134375 7.14,0.134375 C5.77919834,0.131450396 4.44627076,0.536058132 3.3,1.3 L3.522,1.6125 L5.022,3.6625 C5.59911624,3.33816861 6.2442532,3.16748042 6.9,3.165625 C7.008,3.165625 7.119,3.165625 7.224,3.165625 C7.73876307,3.20933068 8.24026419,3.35798023 8.7,3.603125 L8.823,3.375 L10.2,0.840625 C9.34277252,0.416242289 8.41227165,0.17604995 7.464,0.134375 Z" fill="#FF341F" fill-rule="nonzero"></path>
                            <path d="M11.364,1.5625 L10.164,4.1625 L9.951,4.61875 C10.359433,5.11083858 10.6503506,5.6965716 10.8,6.328125 L11.4,6.19375 L14.031,5.625 C13.6103441,3.99480203 12.669824,2.56215754 11.364,1.5625 Z" fill="#FF341F" fill-rule="nonzero"></path>
                            <path d="M11.364,1.5625 L11.526,1.21875 C11.1453769,0.972280925 10.7436621,0.763054434 10.326,0.59375 L10.2,0.840625 C10.6099292,1.04062642 10.9998326,1.28243184 11.364,1.5625 Z" fill="#F9DBD9" fill-rule="nonzero"></path>
                            <path d="M10.2,0.840625 L8.811,3.375 L8.688,3.603125 C9.16886864,3.85196371 9.59644351,4.19955964 9.945,4.625 L10.158,4.16875 L11.358,1.56875 C10.9959876,1.28686904 10.6080999,1.04297371 10.2,0.840625 Z" fill="#FFFFFF" fill-rule="nonzero"></path>
                            <path d="M14.259,7.021875 L14.892,6.834375 C14.8507581,6.37504763 14.7673774,5.92089071 14.643,5.478125 L14.043,5.615625 C14.1580709,6.07608697 14.2304032,6.54700068 14.259,7.021875 Z" fill="#F9DBD9" fill-rule="nonzero"></path>
                            <path d="M14.031,5.625 L11.4,6.19375 L10.8,6.328125 C10.8787144,6.65722706 10.9180133,6.99521413 10.917,7.334375 C10.9172775,7.56470267 10.8992156,7.79465754 10.863,8.021875 L11.529,7.8125 L14.259,7.009375 C14.2250949,6.54145772 14.1487546,6.07793288 14.031,5.625 Z" fill="#FFFFFF" fill-rule="nonzero"></path>
                            <path d="M11.034,13.796875 L11.238,14.075 C11.6286577,13.8499437 11.9982653,13.5873432 12.342,13.290625 L12.102,12.909375 C11.7747643,13.2409313 11.4170458,13.5381927 11.034,13.796875 Z" fill="#F9DBD9" fill-rule="nonzero"></path>
                            <path d="M10.41,10.25625 L10.11,9.809375 C9.78778531,10.2639732 9.37934064,10.6447628 8.91,10.928125 L9.09,11.175 L11.01,13.796875 C11.3930458,13.5381927 11.7507643,13.2409313 12.078,12.909375 L10.41,10.25625 Z" fill="#FFFFFF" fill-rule="nonzero"></path>
                            <path d="M4.422,9.934375 L4.2,10.4125 C4.59118317,10.7820325 5.04908492,11.0667339 5.547,11.25 L5.679,11.0125 C5.19392635,10.7459843 4.76619283,10.3791186 4.422,9.934375 Z" fill="#F9DBD9" fill-rule="nonzero"></path>
                            <path d="M4.2,10.4125 L2.973,13.05625 L2.787,13.459375 C3.1466828,13.7486813 3.53249463,14.0009075 3.939,14.2125 L4.092,13.928125 L5.547,11.25 C5.04908492,11.0667339 4.59118317,10.7820325 4.2,10.4125 Z" fill="#FFFFFF" fill-rule="nonzero"></path>
                            <path d="M2.901,7.334375 C2.90018003,7.78688681 2.97009467,8.23651902 3.108,8.665625 L3.708,8.53125 C3.59685239,8.14282561 3.54026568,7.73968742 3.54,7.334375 C3.53993871,7.16938956 3.54895348,7.00453601 3.567,6.840625 L2.901,7.0375 C2.904,7.134375 2.901,7.234375 2.901,7.334375 Z" fill="#F9DBD9" fill-rule="nonzero"></path>
                            <path d="M2.901,7.334375 C2.901,7.234375 2.901,7.134375 2.901,7.0375 L0.651,7.7 L0,7.8875 C0.0208143578,8.36670457 0.0851007237,8.84278361 0.192,9.309375 L0.81,9.171875 L3.102,8.665625 C2.9661321,8.23616704 2.89824528,7.78654353 2.901,7.334375 Z" fill="#FFFFFF" fill-rule="nonzero"></path>
                            <path d="M3.801,4.6875 L4.116,5.184375 C4.39841492,4.6927368 4.77529135,4.26717625 5.223,3.934375 L5.013,3.65 C4.54799062,3.91031249 4.13627994,4.26274633 3.801,4.6875 Z" fill="#F9DBD9" fill-rule="nonzero"></path>
                            <path d="M3.51,1.609375 L3.288,1.296875 C2.89959369,1.55568349 2.53681445,1.85402169 2.205,2.1875 L2.469,2.6 L3.801,4.6875 C4.13275374,4.26401015 4.54029657,3.91165541 5.001,3.65 L3.51,1.609375 Z" fill="#FFFFFF" fill-rule="nonzero"></path>
                        </g>
                    </g>
                </g>
                <g id="Name-users-connect" transform="translate(0.000000, 96.000000)">
                    <text id="Louis" font-family="CourierNewPSMT, Courier New" font-size="20" font-weight="normal" fill="#C4C4C4">
                        <tspan x="149" y="29">Louis</tspan>
                    </text>
                    <g id="02-avatar" stroke-width="1" fill-rule="evenodd" transform="translate(7.000000, 0.000000)">
                        <mask id="mask-5" fill="white">
                            <use xlink:href="#path-4"></use>
                        </mask>
                        <g id="Mask">
                            <use fill="black" fill-opacity="1" filter="url(#filter-6)" xlink:href="#path-4"></use>
                            <use fill="#FFFFFF" fill-rule="evenodd" xlink:href="#path-4"></use>
                        </g>
                        <g mask="url(#mask-5)" id="02-avatar-05">
                            <g transform="translate(3.000000, 3.000000)">
                                <g>
                                    <circle id="Oval" fill="#5FD1E0" fill-rule="nonzero" cx="21.4313099" cy="21.5261022" r="21.4313099"></circle>
                                    <path d="M22.3187859,12.0647284 L16.9966773,9.98891374 C20.813099,1.76670927 38.2466454,5.0913099 40.2139297,13.9399681 C41.4101522,19.3020265 40.4887702,24.9189127 37.6421725,29.6177955 C32.9492652,37.375655 21.0782428,34.7310863 20.084984,25.7189457 C19.5695905,21.0489725 20.3420952,16.3270017 22.3187859,12.0647284 Z" id="Shape" fill="#349DA5" fill-rule="nonzero"></path>
                                    <path d="M23.2515974,17.2576997 C23.2515974,17.2576997 19.9022684,15.9251118 18.2880511,18.4089457 C18.2880511,18.4089457 20.8625559,18.0572524 22.1223323,21.6634824 C23.3821086,25.2697125 27.6711182,22.1745367 27.6711182,22.1745367 C27.6711182,22.1745367 22.4438019,18.8581789 23.2515974,17.2576997 Z" id="Shape" fill="#FFB7B3" fill-rule="nonzero" opacity="0.53"></path>
                                    <path d="M22.8545687,5.41003195 C22.8545687,5.41003195 35.398754,5.90734824 35.5333866,20.2470927 C35.6680192,34.5868371 20.6166454,32.6374121 20.6166454,32.6374121 C20.6166454,32.6374121 28.948754,26.2547284 26.5239936,22.6924601 C24.0992332,19.1301917 19.1576677,15.6792013 19.1576677,15.6792013 C19.1576677,15.6792013 20.1124601,4.89210863 22.8545687,5.41003195 Z" id="Shape" fill="#FF341F" fill-rule="nonzero"></path>
                                    <path d="M17.4802556,7.80319489 C17.4802556,7.80319489 33.2460064,15.64623 29.7386901,23.4109585 C26.2313738,31.1756869 20.6166454,32.6374121 20.6166454,32.6374121 C20.6166454,32.6374121 26.3728754,28.2000319 26.7328115,25.4620447 C27.0927476,22.7240575 25.7409265,20.9092652 22.4520447,18.2949201 C19.1631629,15.6805751 14.2298403,13.4715016 17.4802556,7.80319489 Z" id="Shape" fill="#E5180E" fill-rule="nonzero"></path>
                                    <circle id="Oval" fill="#FF341F" fill-rule="nonzero" cx="22.0948562" cy="10.9354633" r="5.57626198"></circle>
                                    <path d="M20.6166454,32.6374121 C20.6166454,32.6374121 13.9646965,31.2265176 13.5621725,25.8508307 C13.5621725,25.8508307 10.6771885,32.839361 15.9127476,33.6457827 C15.9127476,33.6457827 11.5454313,37.7438339 16.5185942,40.9022045 C16.5185942,40.9022045 16.4499042,32.5783387 21.5576997,32.7088498 C21.5576997,32.7088498 22.1085942,31.8048882 20.6166454,32.6374121 Z" id="Shape" fill="#FF341F" fill-rule="nonzero"></path>
                                    <path d="M33.1608307,12.581278 C33.1608307,12.581278 34.081278,9.09594249 37.0376997,9.27591054 C37.0376997,9.27591054 35.2229073,11.1360383 37.3729073,14.2944089 C39.5229073,17.4527796 34.4879233,19.058754 34.4879233,19.058754 C34.4879233,19.058754 34.9275399,12.8835144 33.1608307,12.581278 Z" id="Shape" fill="#FFB7B3" fill-rule="nonzero" opacity="0.58"></path>
                                    <ellipse id="Oval" fill="#000000" fill-rule="nonzero" cx="18.4020767" cy="13.2791693" rx="1" ry="1.13063898"></ellipse>
                                    <ellipse id="Oval" fill="#000000" fill-rule="nonzero" cx="23.2296166" cy="6.48709265" rx="1.13613419" ry="1"></ellipse>
                                    <path d="M26.1022364,11.8572843 C26.1022364,11.8572843 24.3836102,12.7365176 25.6461342,13.9949201 C26.9086581,15.2533227 31.2608626,20.0094249 29.788147,24.052524 C28.3154313,28.095623 23.6060383,30.8336102 23.6060383,30.8336102 C23.6060383,30.8336102 31.4710543,27.7054633 31.0671565,23.2570927 C30.6632588,18.808722 29.7153355,13.5855272 26.1022364,11.8572843 Z" id="Shape" fill="#FFB7B3" fill-rule="nonzero" opacity="0.58"></path>
                                </g>
                            </g>
                        </g>
                    </g>
                    <g id="icon/online" transform="translate(46.000000, 35.000000)" fill-rule="evenodd" stroke-width="1">
                        <g id="Group">
                            <path d="M7.2142439,3.07951282 C6.47119512,3.14220513 5.78570732,3.41848718 5.21314634,3.84989744 L5.00436585,3.56246154 C5.56607317,3.24566667 6.20826829,3.06579487 6.89034146,3.06579487 C6.99936585,3.06579487 7.10729268,3.07053846 7.2142439,3.07951282 Z M5.53681707,11.2197949 L5.66693902,10.9787692 C6.13510976,11.2400513 6.65852439,11.4064615 7.2142561,11.4532564 C7.10730488,11.462359 6.99937805,11.4672308 6.89035366,11.4672308 C6.41523171,11.4672308 5.95962195,11.3797949 5.53681707,11.2197949 Z M4.10973171,5.10775641 C3.82643902,5.60391026 3.63802439,6.16673077 3.57034146,6.76839744 L2.90485366,6.96557692 C2.96485366,6.07480769 3.289,5.26083333 3.79534146,4.60967949 L4.10973171,5.10775641 Z M3.70957317,8.47226923 C3.85786585,8.99291026 4.09920732,9.47098718 4.41384146,9.88521795 L4.19310976,10.3654744 C3.70006098,9.89085897 3.32067073,9.28816667 3.1025,8.60739744 L3.70957317,8.47226923 Z M14.8658537,6.76191026 C14.8882927,7.00357692 14.8997561,7.24844872 14.8997561,7.49626923 C14.8997561,9.81665385 13.8962195,11.8906282 12.3204878,13.264859 L12.0789024,12.8821667 C13.4189024,11.5199872 14.2520732,9.6105 14.2520732,7.49626923 C14.2520732,7.31229487 14.2457317,7.12985897 14.2332927,6.94921795 L14.8658537,6.76191026 Z M10.3003049,0.489307692 L10.1742073,0.722897436 C9.3420122,0.308153846 8.42128049,0.0581538462 7.44993902,0.0123846154 C7.5572561,0.00738461538 7.66518293,0.00469230769 7.77371951,0.00469230769 C8.66347561,0.00469230769 9.51506098,0.176230769 10.3003049,0.489307692 Z M14.0049268,5.5329359 C13.5780976,3.87626923 12.6243171,2.44767949 11.3443171,1.45767949 L11.5033415,1.11165385 C12.9911463,2.07421795 14.1167561,3.59524359 14.6161463,5.39691026 L14.0049268,5.5329359 Z M7.44992683,14.9799359 C8.76126829,14.9183974 9.98041463,14.4840385 11.0138293,13.7753205 L11.2177317,14.0562179 C10.1967561,14.6496795 9.02273171,14.9877564 7.77370732,14.9877564 C7.66517073,14.9877564 7.5572439,14.9849359 7.44992683,14.9799359 Z" id="Combined-Shape" fill="#40B294"></path>
                            <path d="M2.90486585,6.96560256 L0.649012195,7.63380769 L0.00681707317,7.8239359 C0.00242682927,7.71534615 -1.2195122e-05,7.60598718 -1.2195122e-05,7.49624359 C-1.2195122e-05,5.36778205 0.844378049,3.44662821 2.20023171,2.08278205 L2.46376829,2.50021795 L3.79535366,4.60970513 C3.28889024,5.26085897 2.96486585,6.07483333 2.90486585,6.96560256 Z M4.19309756,10.3654231 L2.96846341,13.0281154 L2.78139024,13.4346538 C1.51334146,12.407859 0.583463415,10.9420897 0.197365854,9.25388462 L0.814804878,9.11644872 L3.10260976,8.60734615 C3.32065854,9.28824359 3.70004878,9.8909359 4.19309756,10.3654231 Z M9.0969878,11.1353974 L11.0138171,13.7753974 C9.98040244,14.4839872 8.7612561,14.9183462 7.44991463,14.9798846 C7.34247561,14.9848846 7.23467073,14.9877051 7.1260122,14.9877051 C5.9769878,14.9877051 4.89162195,14.7016795 3.93052439,14.193859 L4.08515854,13.9073205 L5.53686585,11.2197564 C5.95954878,11.3797564 6.41528049,11.4671923 6.89028049,11.4671923 C6.99942683,11.4671923 7.10735366,11.4623205 7.21430488,11.4532179 C7.83210976,11.4011667 8.41028049,11.2012949 8.9167439,10.8871923 L9.0969878,11.1353974 Z M10.8321707,7.95669231 L11.506561,7.75694872 L14.2332683,6.94925641 C14.2457073,7.12989744 14.2520488,7.31233333 14.2520488,7.49617949 C14.2520488,9.61041026 13.418878,11.5200256 12.079,12.8822051 L10.3905854,10.2075897 L10.1071707,9.75848718 C10.4732683,9.23694872 10.7272927,8.62335897 10.8321707,7.95669231 Z M5.02221951,3.58132051 L3.50221951,1.53260256 L3.27478049,1.2260641 C4.37660976,0.464910256 5.69197561,0.0159358974 7.10819512,0.000423076923 C7.21685366,-0.000730769231 7.32478049,0.000679487179 7.43221951,0.00465384615 C8.40392683,0.0396538462 9.32721951,0.279525641 10.163439,0.684910256 L8.80904878,3.25491026 L8.68843902,3.48388462 C8.2412439,3.25555128 7.74770732,3.11221795 7.22709756,3.07414103 C7.12014634,3.06619231 7.01209756,3.06273077 6.90319512,3.06388462 C6.221,3.07132051 5.5807561,3.25824359 5.02221951,3.58132051 Z M9.92778049,4.53734615 L10.139122,4.07785897 L11.3442439,1.45773077 C12.6242439,2.44760256 13.5781463,3.87632051 14.0049756,5.53298718 L11.3822927,6.11657692 L10.7687561,6.25311538 C10.6171707,5.60991026 10.3248537,5.02529487 9.92778049,4.53734615 Z" id="Combined-Shape" fill="#70EFD1"></path>
                            <path d="M4.41389024,9.88528205 C4.75462195,10.3338718 5.18096341,10.7074615 5.66693902,10.9787436 L5.53681707,11.2197692 C5.03462195,11.0297692 4.5790122,10.7369487 4.19303659,10.3654103 L4.41389024,9.88528205 Z M3.5422561,7.26646154 C3.5422561,7.68569231 3.60091463,8.09030769 3.70957317,8.47223077 L3.10262195,8.60735897 C2.9677439,8.18620513 2.89457317,7.73530769 2.89457317,7.26646154 C2.89457317,7.16530769 2.89823171,7.06505128 2.90481707,6.9655641 L3.57030488,6.76838462 C3.5520122,6.93184615 3.5422561,7.098 3.5422561,7.26646154 Z M11.0137927,13.7753718 C11.3958659,13.5134487 11.7524512,13.2140897 12.0789146,12.8821667 L12.3205,13.264859 C11.9783049,13.5631923 11.6092805,13.8284487 11.2176951,14.056141 L11.0137927,13.7753718 Z M14.2332317,6.94920513 C14.199939,6.46279487 14.1225,5.98933333 14.004939,5.53292308 L14.6161585,5.39702564 C14.7379878,5.83651282 14.822378,6.29292308 14.8657927,6.76189744 L14.2332317,6.94920513 Z M11.3442805,1.45773077 C10.9792805,1.17542308 10.5876951,0.928884615 10.1741585,0.722858974 L10.3002561,0.489269231 C10.7219634,0.657346154 11.1244024,0.866448718 11.5034268,1.11170513 L11.3442805,1.45773077 Z" id="Combined-Shape" fill="#C7E5DD"></path>
                            <path d="M5.21313415,3.84987179 L5.00435366,3.5624359 C4.53837805,3.82525641 4.12764634,4.1824359 3.79532927,4.60974359 L4.10971951,5.10782051 C4.39215854,4.61320513 4.7685,4.18474359 5.21313415,3.84987179" id="Fill-53" fill="#F0FFFB"></path>
                            <path d="M9.92778049,4.53734615 C9.58070732,4.11080769 9.1537561,3.75837179 8.67131707,3.50529487 L8.7942439,3.27785897 L10.1742439,0.722858974 C10.5876585,0.928884615 10.9792439,1.17542308 11.3442439,1.45773077 L10.139122,4.07785897 L9.92778049,4.53734615 Z M11.3822683,6.11662821 L14.0049512,5.53291026 C14.1225122,5.98932051 14.1998293,6.46278205 14.2332439,6.94919231 L11.5066585,7.75701282 L10.8321463,7.95675641 C10.8673902,7.73214103 10.8861707,7.50162821 10.8861707,7.2665 C10.8861707,6.91701282 10.8453171,6.57778205 10.7688537,6.25303846 L11.3822683,6.11662821 Z M10.1071341,9.75844872 L10.3905488,10.2075513 L12.0789634,12.8821667 C11.752378,13.2140897 11.3957927,13.5134487 11.0138415,13.7753718 L9.0970122,11.1353718 L8.91676829,10.8872949 C9.3825,10.5987051 9.78737805,10.2138333 10.1071341,9.75844872 Z M5.53681707,11.2197949 L4.08523171,13.907359 L3.93047561,14.1938974 C3.52364634,13.9788974 3.13913415,13.7242821 2.78132927,13.4346667 L2.96840244,13.028 L4.19303659,10.3654359 C4.5790122,10.7368462 5.03462195,11.0297949 5.53681707,11.2197949 Z M3.10256098,8.60735897 L0.814878049,9.11646154 L0.197317073,9.25389744 C0.0918292683,8.79235897 0.0269512195,8.31441026 0.00682926829,7.82402564 L0.64902439,7.63376923 L2.90487805,6.9655641 C2.89817073,7.06505128 2.89463415,7.16530769 2.89463415,7.26646154 C2.89463415,7.73530769 2.96780488,8.18620513 3.10256098,8.60735897 Z M3.79532927,4.60971795 L2.4637439,2.50023077 L2.20020732,2.08279487 C2.53142683,1.74958974 2.89313415,1.44971795 3.28045122,1.18817949 L3.50484146,1.49715385 L5.00435366,3.56241026 C4.53837805,3.82523077 4.12764634,4.18241026 3.79532927,4.60971795 Z" id="Combined-Shape" fill="#FFFFFF"></path>
                        </g>
                    </g>
                </g>
                <g id="Name-users-connect" transform="translate(0.000000, 192.000000)">
                    <text id="Louis" font-family="CourierNewPSMT, Courier New" font-size="20" font-weight="normal" fill="#C4C4C4">
                        <tspan x="149" y="29">Léna</tspan>
                    </text>
                    <g id="02-avatar" stroke-width="1" fill-rule="evenodd" transform="translate(7.000000, 0.000000)">
                        <mask id="mask-8" fill="white">
                            <use xlink:href="#path-7"></use>
                        </mask>
                        <g id="Mask">
                            <use fill="black" fill-opacity="1" filter="url(#filter-9)" xlink:href="#path-7"></use>
                            <use fill="#FFFFFF" fill-rule="evenodd" xlink:href="#path-7"></use>
                        </g>
                        <g mask="url(#mask-8)" id="02-avatar-05">
                            <g transform="translate(3.000000, 3.000000)">
                                <g>
                                    <circle id="Oval" fill="#5FD1E0" fill-rule="nonzero" cx="21.4313099" cy="21.5261022" r="21.4313099"></circle>
                                    <path d="M22.3187859,12.0647284 L16.9966773,9.98891374 C20.813099,1.76670927 38.2466454,5.0913099 40.2139297,13.9399681 C41.4101522,19.3020265 40.4887702,24.9189127 37.6421725,29.6177955 C32.9492652,37.375655 21.0782428,34.7310863 20.084984,25.7189457 C19.5695905,21.0489725 20.3420952,16.3270017 22.3187859,12.0647284 Z" id="Shape" fill="#349DA5" fill-rule="nonzero"></path>
                                    <path d="M23.2515974,17.2576997 C23.2515974,17.2576997 19.9022684,15.9251118 18.2880511,18.4089457 C18.2880511,18.4089457 20.8625559,18.0572524 22.1223323,21.6634824 C23.3821086,25.2697125 27.6711182,22.1745367 27.6711182,22.1745367 C27.6711182,22.1745367 22.4438019,18.8581789 23.2515974,17.2576997 Z" id="Shape" fill="#FFB7B3" fill-rule="nonzero" opacity="0.53"></path>
                                    <path d="M22.8545687,5.41003195 C22.8545687,5.41003195 35.398754,5.90734824 35.5333866,20.2470927 C35.6680192,34.5868371 20.6166454,32.6374121 20.6166454,32.6374121 C20.6166454,32.6374121 28.948754,26.2547284 26.5239936,22.6924601 C24.0992332,19.1301917 19.1576677,15.6792013 19.1576677,15.6792013 C19.1576677,15.6792013 20.1124601,4.89210863 22.8545687,5.41003195 Z" id="Shape" fill="#FF341F" fill-rule="nonzero"></path>
                                    <path d="M17.4802556,7.80319489 C17.4802556,7.80319489 33.2460064,15.64623 29.7386901,23.4109585 C26.2313738,31.1756869 20.6166454,32.6374121 20.6166454,32.6374121 C20.6166454,32.6374121 26.3728754,28.2000319 26.7328115,25.4620447 C27.0927476,22.7240575 25.7409265,20.9092652 22.4520447,18.2949201 C19.1631629,15.6805751 14.2298403,13.4715016 17.4802556,7.80319489 Z" id="Shape" fill="#E5180E" fill-rule="nonzero"></path>
                                    <circle id="Oval" fill="#FF341F" fill-rule="nonzero" cx="22.0948562" cy="10.9354633" r="5.57626198"></circle>
                                    <path d="M20.6166454,32.6374121 C20.6166454,32.6374121 13.9646965,31.2265176 13.5621725,25.8508307 C13.5621725,25.8508307 10.6771885,32.839361 15.9127476,33.6457827 C15.9127476,33.6457827 11.5454313,37.7438339 16.5185942,40.9022045 C16.5185942,40.9022045 16.4499042,32.5783387 21.5576997,32.7088498 C21.5576997,32.7088498 22.1085942,31.8048882 20.6166454,32.6374121 Z" id="Shape" fill="#FF341F" fill-rule="nonzero"></path>
                                    <path d="M33.1608307,12.581278 C33.1608307,12.581278 34.081278,9.09594249 37.0376997,9.27591054 C37.0376997,9.27591054 35.2229073,11.1360383 37.3729073,14.2944089 C39.5229073,17.4527796 34.4879233,19.058754 34.4879233,19.058754 C34.4879233,19.058754 34.9275399,12.8835144 33.1608307,12.581278 Z" id="Shape" fill="#FFB7B3" fill-rule="nonzero" opacity="0.58"></path>
                                    <ellipse id="Oval" fill="#000000" fill-rule="nonzero" cx="18.4020767" cy="13.2791693" rx="1" ry="1.13063898"></ellipse>
                                    <ellipse id="Oval" fill="#000000" fill-rule="nonzero" cx="23.2296166" cy="6.48709265" rx="1.13613419" ry="1"></ellipse>
                                    <path d="M26.1022364,11.8572843 C26.1022364,11.8572843 24.3836102,12.7365176 25.6461342,13.9949201 C26.9086581,15.2533227 31.2608626,20.0094249 29.788147,24.052524 C28.3154313,28.095623 23.6060383,30.8336102 23.6060383,30.8336102 C23.6060383,30.8336102 31.4710543,27.7054633 31.0671565,23.2570927 C30.6632588,18.808722 29.7153355,13.5855272 26.1022364,11.8572843 Z" id="Shape" fill="#FFB7B3" fill-rule="nonzero" opacity="0.58"></path>
                                </g>
                            </g>
                        </g>
                    </g>
                    <g id="icon/online" transform="translate(46.000000, 35.000000)" fill-rule="evenodd" stroke-width="1">
                        <g id="Group">
                            <path d="M7.2142439,3.07951282 C6.47119512,3.14220513 5.78570732,3.41848718 5.21314634,3.84989744 L5.00436585,3.56246154 C5.56607317,3.24566667 6.20826829,3.06579487 6.89034146,3.06579487 C6.99936585,3.06579487 7.10729268,3.07053846 7.2142439,3.07951282 Z M5.53681707,11.2197949 L5.66693902,10.9787692 C6.13510976,11.2400513 6.65852439,11.4064615 7.2142561,11.4532564 C7.10730488,11.462359 6.99937805,11.4672308 6.89035366,11.4672308 C6.41523171,11.4672308 5.95962195,11.3797949 5.53681707,11.2197949 Z M4.10973171,5.10775641 C3.82643902,5.60391026 3.63802439,6.16673077 3.57034146,6.76839744 L2.90485366,6.96557692 C2.96485366,6.07480769 3.289,5.26083333 3.79534146,4.60967949 L4.10973171,5.10775641 Z M3.70957317,8.47226923 C3.85786585,8.99291026 4.09920732,9.47098718 4.41384146,9.88521795 L4.19310976,10.3654744 C3.70006098,9.89085897 3.32067073,9.28816667 3.1025,8.60739744 L3.70957317,8.47226923 Z M14.8658537,6.76191026 C14.8882927,7.00357692 14.8997561,7.24844872 14.8997561,7.49626923 C14.8997561,9.81665385 13.8962195,11.8906282 12.3204878,13.264859 L12.0789024,12.8821667 C13.4189024,11.5199872 14.2520732,9.6105 14.2520732,7.49626923 C14.2520732,7.31229487 14.2457317,7.12985897 14.2332927,6.94921795 L14.8658537,6.76191026 Z M10.3003049,0.489307692 L10.1742073,0.722897436 C9.3420122,0.308153846 8.42128049,0.0581538462 7.44993902,0.0123846154 C7.5572561,0.00738461538 7.66518293,0.00469230769 7.77371951,0.00469230769 C8.66347561,0.00469230769 9.51506098,0.176230769 10.3003049,0.489307692 Z M14.0049268,5.5329359 C13.5780976,3.87626923 12.6243171,2.44767949 11.3443171,1.45767949 L11.5033415,1.11165385 C12.9911463,2.07421795 14.1167561,3.59524359 14.6161463,5.39691026 L14.0049268,5.5329359 Z M7.44992683,14.9799359 C8.76126829,14.9183974 9.98041463,14.4840385 11.0138293,13.7753205 L11.2177317,14.0562179 C10.1967561,14.6496795 9.02273171,14.9877564 7.77370732,14.9877564 C7.66517073,14.9877564 7.5572439,14.9849359 7.44992683,14.9799359 Z" id="Combined-Shape" fill="#40B294"></path>
                            <path d="M2.90486585,6.96560256 L0.649012195,7.63380769 L0.00681707317,7.8239359 C0.00242682927,7.71534615 -1.2195122e-05,7.60598718 -1.2195122e-05,7.49624359 C-1.2195122e-05,5.36778205 0.844378049,3.44662821 2.20023171,2.08278205 L2.46376829,2.50021795 L3.79535366,4.60970513 C3.28889024,5.26085897 2.96486585,6.07483333 2.90486585,6.96560256 Z M4.19309756,10.3654231 L2.96846341,13.0281154 L2.78139024,13.4346538 C1.51334146,12.407859 0.583463415,10.9420897 0.197365854,9.25388462 L0.814804878,9.11644872 L3.10260976,8.60734615 C3.32065854,9.28824359 3.70004878,9.8909359 4.19309756,10.3654231 Z M9.0969878,11.1353974 L11.0138171,13.7753974 C9.98040244,14.4839872 8.7612561,14.9183462 7.44991463,14.9798846 C7.34247561,14.9848846 7.23467073,14.9877051 7.1260122,14.9877051 C5.9769878,14.9877051 4.89162195,14.7016795 3.93052439,14.193859 L4.08515854,13.9073205 L5.53686585,11.2197564 C5.95954878,11.3797564 6.41528049,11.4671923 6.89028049,11.4671923 C6.99942683,11.4671923 7.10735366,11.4623205 7.21430488,11.4532179 C7.83210976,11.4011667 8.41028049,11.2012949 8.9167439,10.8871923 L9.0969878,11.1353974 Z M10.8321707,7.95669231 L11.506561,7.75694872 L14.2332683,6.94925641 C14.2457073,7.12989744 14.2520488,7.31233333 14.2520488,7.49617949 C14.2520488,9.61041026 13.418878,11.5200256 12.079,12.8822051 L10.3905854,10.2075897 L10.1071707,9.75848718 C10.4732683,9.23694872 10.7272927,8.62335897 10.8321707,7.95669231 Z M5.02221951,3.58132051 L3.50221951,1.53260256 L3.27478049,1.2260641 C4.37660976,0.464910256 5.69197561,0.0159358974 7.10819512,0.000423076923 C7.21685366,-0.000730769231 7.32478049,0.000679487179 7.43221951,0.00465384615 C8.40392683,0.0396538462 9.32721951,0.279525641 10.163439,0.684910256 L8.80904878,3.25491026 L8.68843902,3.48388462 C8.2412439,3.25555128 7.74770732,3.11221795 7.22709756,3.07414103 C7.12014634,3.06619231 7.01209756,3.06273077 6.90319512,3.06388462 C6.221,3.07132051 5.5807561,3.25824359 5.02221951,3.58132051 Z M9.92778049,4.53734615 L10.139122,4.07785897 L11.3442439,1.45773077 C12.6242439,2.44760256 13.5781463,3.87632051 14.0049756,5.53298718 L11.3822927,6.11657692 L10.7687561,6.25311538 C10.6171707,5.60991026 10.3248537,5.02529487 9.92778049,4.53734615 Z" id="Combined-Shape" fill="#70EFD1"></path>
                            <path d="M4.41389024,9.88528205 C4.75462195,10.3338718 5.18096341,10.7074615 5.66693902,10.9787436 L5.53681707,11.2197692 C5.03462195,11.0297692 4.5790122,10.7369487 4.19303659,10.3654103 L4.41389024,9.88528205 Z M3.5422561,7.26646154 C3.5422561,7.68569231 3.60091463,8.09030769 3.70957317,8.47223077 L3.10262195,8.60735897 C2.9677439,8.18620513 2.89457317,7.73530769 2.89457317,7.26646154 C2.89457317,7.16530769 2.89823171,7.06505128 2.90481707,6.9655641 L3.57030488,6.76838462 C3.5520122,6.93184615 3.5422561,7.098 3.5422561,7.26646154 Z M11.0137927,13.7753718 C11.3958659,13.5134487 11.7524512,13.2140897 12.0789146,12.8821667 L12.3205,13.264859 C11.9783049,13.5631923 11.6092805,13.8284487 11.2176951,14.056141 L11.0137927,13.7753718 Z M14.2332317,6.94920513 C14.199939,6.46279487 14.1225,5.98933333 14.004939,5.53292308 L14.6161585,5.39702564 C14.7379878,5.83651282 14.822378,6.29292308 14.8657927,6.76189744 L14.2332317,6.94920513 Z M11.3442805,1.45773077 C10.9792805,1.17542308 10.5876951,0.928884615 10.1741585,0.722858974 L10.3002561,0.489269231 C10.7219634,0.657346154 11.1244024,0.866448718 11.5034268,1.11170513 L11.3442805,1.45773077 Z" id="Combined-Shape" fill="#C7E5DD"></path>
                            <path d="M5.21313415,3.84987179 L5.00435366,3.5624359 C4.53837805,3.82525641 4.12764634,4.1824359 3.79532927,4.60974359 L4.10971951,5.10782051 C4.39215854,4.61320513 4.7685,4.18474359 5.21313415,3.84987179" id="Fill-53" fill="#F0FFFB"></path>
                            <path d="M9.92778049,4.53734615 C9.58070732,4.11080769 9.1537561,3.75837179 8.67131707,3.50529487 L8.7942439,3.27785897 L10.1742439,0.722858974 C10.5876585,0.928884615 10.9792439,1.17542308 11.3442439,1.45773077 L10.139122,4.07785897 L9.92778049,4.53734615 Z M11.3822683,6.11662821 L14.0049512,5.53291026 C14.1225122,5.98932051 14.1998293,6.46278205 14.2332439,6.94919231 L11.5066585,7.75701282 L10.8321463,7.95675641 C10.8673902,7.73214103 10.8861707,7.50162821 10.8861707,7.2665 C10.8861707,6.91701282 10.8453171,6.57778205 10.7688537,6.25303846 L11.3822683,6.11662821 Z M10.1071341,9.75844872 L10.3905488,10.2075513 L12.0789634,12.8821667 C11.752378,13.2140897 11.3957927,13.5134487 11.0138415,13.7753718 L9.0970122,11.1353718 L8.91676829,10.8872949 C9.3825,10.5987051 9.78737805,10.2138333 10.1071341,9.75844872 Z M5.53681707,11.2197949 L4.08523171,13.907359 L3.93047561,14.1938974 C3.52364634,13.9788974 3.13913415,13.7242821 2.78132927,13.4346667 L2.96840244,13.028 L4.19303659,10.3654359 C4.5790122,10.7368462 5.03462195,11.0297949 5.53681707,11.2197949 Z M3.10256098,8.60735897 L0.814878049,9.11646154 L0.197317073,9.25389744 C0.0918292683,8.79235897 0.0269512195,8.31441026 0.00682926829,7.82402564 L0.64902439,7.63376923 L2.90487805,6.9655641 C2.89817073,7.06505128 2.89463415,7.16530769 2.89463415,7.26646154 C2.89463415,7.73530769 2.96780488,8.18620513 3.10256098,8.60735897 Z M3.79532927,4.60971795 L2.4637439,2.50023077 L2.20020732,2.08279487 C2.53142683,1.74958974 2.89313415,1.44971795 3.28045122,1.18817949 L3.50484146,1.49715385 L5.00435366,3.56241026 C4.53837805,3.82523077 4.12764634,4.18241026 3.79532927,4.60971795 Z" id="Combined-Shape" fill="#FFFFFF"></path>
                        </g>
                    </g>
                </g>
            </g>
        </g>
    </g>
</svg>