<svg id="Calque_1" data-name="Calque 1" xmlns="http://www.w3.org/2000/svg" viewBox="0 0 329 325"><defs><style>.cls-1{fill:#5fd1e0;}.cls-2{fill:#349da5;}.cls-3,.cls-6{fill:#ffb7b3;}.cls-3{opacity:0.53;}.cls-4{fill:#ff341f;}.cls-5{fill:#e5180e;}.cls-6{opacity:0.58;}</style></defs><title>02-avatar</title><circle class="cls-1" cx="167" cy="161.69" r="156"/><path class="cls-2" d="M173.46,92.82,134.72,77.71c27.78-59.85,154.68-35.65,169,28.76A155.08,155.08,0,0,1,285,220.59c-34.16,56.47-120.57,37.22-127.8-28.38h0A187.38,187.38,0,0,1,173.46,92.82Z"/><path class="cls-3" d="M180.25,130.62s-24.38-9.7-36.13,8.38c0,0,18.74-2.56,27.91,23.69s40.39,3.72,40.39,3.72S174.37,142.27,180.25,130.62Z"/><path class="cls-4" d="M177.36,44.38s91.31,3.62,92.29,108-108.58,90.19-108.58,90.19,60.65-46.46,43-72.39-53.62-51.05-53.62-51.05S157.4,40.61,177.36,44.38Z"/><path class="cls-5" d="M138.24,61.8S253,118.89,227.47,175.41s-66.4,67.16-66.4,67.16,41.9-32.3,44.52-52.23-7.22-33.14-31.16-52.17S114.58,103.06,138.24,61.8Z"/><circle class="cls-4" cx="171.83" cy="84.6" r="40.59"/><path class="cls-4" d="M161.07,242.57s-48.42-10.27-51.35-49.4c0,0-21,50.87,17.11,56.74,0,0-31.79,29.83,4.41,52.82,0,0-.5-60.59,36.68-59.64C167.92,243.09,171.93,236.51,161.07,242.57Z"/><path class="cls-6" d="M252.38,96.58s6.7-25.37,28.22-24.06c0,0-13.21,13.54,2.44,36.53s-21,34.68-21,34.68S265.24,98.78,252.38,96.58Z"/><ellipse cx="144.95" cy="101.66" rx="5.54" ry="8.23"/><ellipse cx="180.09" cy="52.22" rx="8.27" ry="5.61"/><path class="cls-6" d="M201,91.31s-12.51,6.4-3.32,15.56,40.87,43.78,30.15,73.21-45,49.36-45,49.36,57.25-22.77,54.31-55.15S227.3,103.89,201,91.31Z"/></svg>