<?xml version="1.0" encoding="UTF-8"?>
<svg width="314px" height="314px" viewBox="0 0 314 314" version="1.1" xmlns="http://www.w3.org/2000/svg" xmlns:xlink="http://www.w3.org/1999/xlink">
    <!-- Generator: Sketch 50.2 (55047) - http://www.bohemiancoding.com/sketch -->
    <title>01-avatar</title>
    <desc>Created with Sketch.</desc>
    <defs>
        <circle id="path-1" cx="157" cy="157" r="157"></circle>
    </defs>
    <g id="Page-1" stroke="none" stroke-width="1" fill="none" fill-rule="evenodd">
        <g id="Apple-TV-Copy" transform="translate(-485.000000, -174.000000)">
            <g id="01-avatar" transform="translate(485.000000, 174.000000)">
                <mask id="mask-2" fill="white">
                    <use xlink:href="#path-1"></use>
                </mask>
                <use id="Mask" fill="#D8D8D8" xlink:href="#path-1"></use>
                <g id="01-avatar-02" mask="url(#mask-2)">
                    <g transform="translate(-13.000000, -9.000000)">
                        <g>
                            <ellipse id="Oval" fill="#454DFF" fill-rule="nonzero" cx="164.602128" cy="164.113781" rx="164.602128" ry="164.020495"></ellipse>
                            <path d="M178.42234,99.2332155 L137.535106,83.339576 C166.848936,20.3713781 300.756383,45.8618375 315.875532,113.587633 C325.052149,154.633228 317.953735,197.624709 296.06383,233.577032 C260.009574,292.95371 168.838298,272.722261 161.208511,203.737102 C157.260282,167.989645 163.213613,131.847409 178.42234,99.2332155 Z" id="Shape" fill="#2433E2" fill-rule="nonzero"></path>
                            <path d="M160.939362,278.529329 C160.939362,278.529329 131.426596,242.380919 119.560638,276.022261 C107.694681,309.663604 105.319149,317.173145 105.319149,317.173145 C105.319149,317.173145 165.795745,344.09788 223.990426,317.173145 C223.990426,317.173145 222.679787,221.55477 173.121277,278.55265 L160.939362,278.529329 Z" id="Shape" fill="#FFFFFF" fill-rule="nonzero"></path>
                            <path d="M109.859574,143.800707 L92.6457447,81.7187279 C92.6457447,81.7187279 91.8851064,64.5540636 109.859574,67.7257951 C127.834043,70.8975265 149.389362,57.6742049 167.001064,61.2890459 C184.612766,64.9038869 204.670213,55.6568905 219.075532,57.2660777 C233.480851,58.875265 243.193617,67.7607774 238.887234,77.3809187 C234.580851,87.0010601 232.053191,107.757244 233.492553,118.718375 C234.931915,129.679505 223.791489,143.754064 223.791489,143.754064 C223.791489,143.754064 119.209574,158.283392 109.859574,143.800707 Z" id="Shape" fill="#CCA269" fill-rule="nonzero"></path>
                            <path d="M166.170213,89.2399293 C166.170213,89.2399293 159.82766,67.8657244 172.770213,67.5159011 C185.712766,67.1660777 185.490426,61.5922261 189.293617,60.9392226 C193.096809,60.2862191 215.131915,49.1385159 227.395745,55.7618375 C239.659574,62.385159 246.809574,60.7060071 242.491489,77.1826855 C238.173404,93.659364 235.212766,103.874205 235.645745,112.992933 C236.078723,122.111661 234.814894,124.65371 228.226596,137.119081 C221.638298,149.584452 223.791489,143.800707 223.791489,143.800707 L219.110638,144.512014 L226.939362,99.8628975 C226.939362,99.8628975 229.57234,89.2399293 214.839362,89.2399293 C200.106383,89.2399293 170.347872,92.6915194 166.170213,89.2399293 Z" id="Shape" fill="#896A45" fill-rule="nonzero"></path>
                            <path d="M166.170213,89.2399293 L114.341489,89.2399293 C111.657703,89.2398389 109.111701,90.4242256 107.388479,92.4744328 C105.665257,94.5246401 104.941805,97.2300937 105.412766,99.8628975 L126.382979,216.470671 C127.154865,220.78001 130.918741,223.91614 135.311702,223.910247 L197.017021,223.910247 C201.407295,223.915226 205.167309,220.778202 205.934043,216.470671 L226.904255,99.8628975 C227.379183,97.2314289 226.658803,94.5255678 224.937307,92.4747264 C223.215811,90.423885 220.6704,89.2391653 217.987234,89.2399293 L166.170213,89.2399293 Z" id="Shape" fill="#FFFFFF" fill-rule="nonzero"></path>
                            <path d="M166.170213,89.2397886 L166.170213,223.886928 L195.530851,223.886926 C200.784419,223.89044 205.285461,220.142182 206.214894,214.989753 L227.278723,97.8572438 C227.664849,95.7149083 227.074573,93.5124384 225.667985,91.8471724 C224.261397,90.1819064 222.184289,89.2264478 220,89.2399293 L166.170213,89.2397886 Z" id="Shape" fill="#FFF5E6" fill-rule="nonzero"></path>
                            <ellipse id="Oval" fill="#775123" fill-rule="nonzero" cx="142.660638" cy="127.324028" rx="5.12553191" ry="5.10742049"></ellipse>
                            <ellipse id="Oval" fill="#775123" fill-rule="nonzero" cx="186.344681" cy="127.324028" rx="5.12553191" ry="5.10742049"></ellipse>
                            <path d="M122.392553,194.233569 L126.242553,218.149823 C126.944341,222.554174 130.754452,225.797144 135.229787,225.799293 L196.829787,225.799293 C201.782449,225.795642 205.977905,222.161824 206.671277,217.275265 L209.93617,194.233569 L122.392553,194.233569 Z" id="Shape" fill="#CCA269" fill-rule="nonzero"></path>
                            <path d="M131.06383,112.992933 C131.06383,112.992933 140.051064,99.7462898 151.191489,110.485866 C151.191489,110.485866 139.688298,104.760424 131.06383,112.992933 Z" id="Shape" fill="#CCA269" fill-rule="nonzero"></path>
                            <path d="M199.345745,112.992933 C199.345745,112.992933 190.370213,99.7462898 179.229787,110.485866 C179.229787,110.485866 190.744681,104.760424 199.345745,112.992933 Z" id="Shape" fill="#CCA269" fill-rule="nonzero"></path>
                            <ellipse id="Oval" fill="#FFFFFF" fill-rule="nonzero" cx="114.411702" cy="153.619081" rx="9.1393617" ry="9.10706714"></ellipse>
                            <ellipse id="Oval" fill="#FFF5E6" fill-rule="nonzero" cx="219.075532" cy="153.619081" rx="9.1393617" ry="9.10706714"></ellipse>
                            <ellipse id="Oval" fill="#FFF5E6" fill-rule="nonzero" cx="167.001064" cy="170.293993" rx="12.2170213" ry="12.1738516"></ellipse>
                            <path d="M112.480851,150.237456 C112.342777,150.965643 112.342777,151.713156 112.480851,152.441343 C112.574468,152.977739 112.656383,153.44417 112.726596,154.003887 C112.797054,154.619319 112.828322,155.23858 112.820213,155.857951 C112.826553,156.701589 112.712285,157.541827 112.480851,158.353357 C111.593187,158.084238 110.809247,157.551253 110.234043,156.825795 C109.678256,156.118833 109.333534,155.270177 109.239362,154.377032 C109.115083,153.39183 109.338479,152.394224 109.871277,151.555124 C110.406861,150.644294 111.427026,150.129176 112.480851,150.237456 Z" id="Shape" fill="#775123" fill-rule="nonzero"></path>
                            <path d="M221.638298,157.677032 C221.536694,156.944209 221.368267,156.222141 221.135106,155.519788 C220.987458,154.957522 220.885708,154.384274 220.830851,153.805654 C220.779845,153.171523 220.803409,152.533625 220.901064,151.904947 C221.011697,151.091391 221.26103,150.302655 221.638298,149.572792 C222.435955,149.943377 223.11015,150.534249 223.580851,151.275265 C224.009758,151.962457 224.266618,152.742312 224.329787,153.549117 C224.401068,154.410225 224.230914,155.274138 223.838298,156.044523 C223.439648,156.932802 222.606578,157.550981 221.638298,157.677032 Z" id="Shape" fill="#775123" fill-rule="nonzero"></path>
                            <path d="M166.170213,194.233569 C166.170213,194.233569 170.254255,214.325088 165.760638,225.799293 L193.611702,225.799293 C193.611702,225.799293 205.138298,228.131449 206.682979,217.275265 L209.947872,194.233569 L166.170213,194.233569 Z" id="Shape" fill="#896A45" fill-rule="nonzero"></path>
                            <polygon id="Shape" fill="#FFFFFF" fill-rule="nonzero" points="154.784043 206.057597 179.229787 200.681979 179.229787 207.841696"></polygon>
                            <path d="M149.518085,132.419788 C149.518085,132.419788 142.765957,141.526855 132.234043,138.658304 C132.234043,138.658304 143.046809,150.29576 149.518085,132.419788 Z" id="Shape" fill="#FFF5E6" fill-rule="nonzero"></path>
                            <polygon id="Shape" fill="#FFFFFF" fill-rule="nonzero" points="156.082979 226.009187 160.939362 278.529329 167.001064 278.529329 167.001064 225.799293"></polygon>
                            <polygon id="Shape" fill="#FFF5E6" fill-rule="nonzero" points="177.919149 226.009187 173.074468 278.529329 167.001064 278.529329 167.001064 225.799293"></polygon>
                            <path d="M116.646809,269.55053 C116.646809,269.55053 175.824468,299.868551 209,263.4053 C209,263.4053 210.275532,262.973852 213.247872,267.848057 C213.247872,267.848057 174.853191,308.812367 114.411702,273.853357 L116.646809,269.55053 Z" id="Shape" fill="#454DFF" fill-rule="nonzero"></path>
                            <path d="M113.639362,288.627562 C113.639362,288.627562 185.080851,318.945583 225.125532,282.493993 C225.125532,282.493993 226.670213,282.062544 230.262766,286.936749 C230.262766,286.936749 183.898936,327.90106 110.901064,292.942049 L113.639362,288.627562 Z" id="Shape" fill="#454DFF" fill-rule="nonzero"></path>
                            <path d="M106.267021,302.632155 C106.267021,302.632155 182.225532,332.950177 224.797872,296.486926 C224.797872,296.486926 226.43617,296.067138 230.262766,300.929682 C230.262766,300.929682 180.973404,341.893993 103.388298,306.934982 L106.267021,302.632155 Z" id="Shape" fill="#454DFF" fill-rule="nonzero"></path>
                            <path d="M141.525532,262.565724 C141.525532,262.565724 127.482979,294.807774 126.020213,323.388339 C126.020213,323.388339 171.108511,331.749117 201.534043,324.845936 C201.534043,324.845936 209.280851,296.288693 191.247872,266.798587 C190.569327,265.690585 189.452092,264.9203 188.172344,264.67814 C186.892596,264.43598 185.569766,264.744546 184.530851,265.527562 L182.43617,267.101767 C180.765207,268.337564 180.265647,270.612486 181.265957,272.430742 C183.501064,276.442049 186.590426,283.904947 184.144681,291.437809 C184.144681,291.437809 161.501064,302.538869 151.8,291.437809 C151.8,291.437809 143.058511,281.339576 150.126596,267.404947 C150.15,267.404947 148.11383,259.825442 141.525532,262.565724 Z" id="Shape" fill="#F4E911" fill-rule="nonzero"></path>
                            <path d="M154.784043,170.24735 C154.784043,170.24735 155.743617,182.10636 167.001064,182.421201 C178.258511,182.736042 179.229787,170.24735 179.229787,170.24735 C179.229787,170.24735 165.561702,181.674912 154.784043,170.24735 Z" id="Shape" fill="#FFC7CF" fill-rule="nonzero"></path>
                            <ellipse id="Oval" fill="#FFE3E8" fill-rule="nonzero" cx="136.903191" cy="160.324028" rx="10.8712766" ry="6.69328622"></ellipse>
                            <ellipse id="Oval" fill="#FFE3E8" fill-rule="nonzero" cx="194.582979" cy="160.324028" rx="10.8712766" ry="6.69328622"></ellipse>
                            <ellipse id="Oval" fill="#775123" fill-rule="nonzero" cx="143.526596" cy="308.824028" rx="5.99148936" ry="5.97031802"></ellipse>
                            <ellipse id="Oval" fill="#775123" fill-rule="nonzero" cx="186.344681" cy="308.824028" rx="5.99148936" ry="5.97031802"></ellipse>
                        </g>
                    </g>
                </g>
            </g>
        </g>
    </g>
</svg>