<?xml version="1.0" encoding="UTF-8"?>
<svg width="50px" height="48px" viewBox="0 0 50 48" version="1.1" xmlns="http://www.w3.org/2000/svg" xmlns:xlink="http://www.w3.org/1999/xlink">
    <!-- Generator: Sketch 50.2 (55047) - http://www.bohemiancoding.com/sketch -->
    <title>bouee-red_Plan de travail 1</title>
    <desc>Created with Sketch.</desc>
    <defs></defs>
    <g id="Page-1" stroke="none" stroke-width="1" fill="none" fill-rule="evenodd">
        <g id="Apple-TV-Copy" transform="translate(-714.000000, -177.000000)" fill-rule="nonzero">
            <g id="bouee-red_Plan-de-travail-1" transform="translate(714.000000, 177.000000)">
                <path d="M24.88,48 L26,48 C30.0262596,47.9956317 33.9846874,46.9629983 37.5,45 L36.82,44.11 C33.2619602,46.4562335 29.1372847,47.8000348 24.88,48 Z" id="Shape" fill="#DD1C12"></path>
                <path d="M34.4,1.94 C31.7154581,0.925464884 28.8698489,0.403769861 26,0.4 C25.64,0.4 25.28,0.4 24.92,0.4 C28.069405,0.548084506 31.1570511,1.32679699 34,2.69 L34.4,1.94 Z" id="Shape" fill="#DD1C12"></path>
                <path d="M46.77,18 L48.77,17.56 C47.1229314,11.891141 43.4361412,7.03241464 38.42,3.92 L37.88,5 C42.2327467,8.19890412 45.3678137,12.7833665 46.77,18 Z" id="Shape" fill="#DD1C12"></path>
                <path d="M24.09,10.1699807 C23.74,10.17 23.37,10.17 23.01,10.17 C20.81149,10.1662516 18.6465454,10.7092059 16.71,11.75 L17.41,12.66 C19.3678613,11.2362292 21.6778939,10.3751542 24.09,10.1699807 Z" id="Shape" fill="#DD1C12"></path>
                <path d="M18.49,36 C19.9393103,36.5239983 21.4688729,36.7913333 23.01,36.79 C23.37,36.79 23.74,36.79 24.09,36.790005 C22.2856012,36.6476865 20.5294929,36.1371899 18.93,35.29 L18.49,36 Z" id="Shape" fill="#DD1C12"></path>
                <path d="M9.7,22.52 L11.92,21.89 C12.1434469,20.0264637 12.7567489,18.2308518 13.72,16.62 L12.67,15 C10.9241856,17.1380595 9.88628519,19.7660094 9.7,22.52 Z" id="Shape" fill="#DD1C12"></path>
                <path d="M14,33.32 L14.74,31.79 C13.6723087,30.4602813 12.8740871,28.9351686 12.39,27.3 L10.39,27.73 C11.1072864,29.865732 12.3484351,31.7876214 14,33.32 Z" id="Shape" fill="#DD1C12"></path>
                <path d="M47.53,22.47 C47.53,23.04 47.6,23.62 47.6,24.2 C47.6048416,30.6527694 44.9838707,36.8297408 40.34,41.31 L41.14,42.53 C46.6054292,38.0130436 49.766869,31.2903994 49.76,24.2 C49.7601782,23.4217844 49.7201248,22.6440798 49.64,21.87 L47.53,22.47 Z" id="Shape" fill="#DD1C12"></path>
                <path d="M2.72,29.35 L0.66,29.79 C1.93775282,35.0714245 4.98282821,39.7572416 9.29,43.07 L9.91,41.78 C6.29023156,38.4761558 3.77914274,34.1350106 2.72,29.35 Z" id="Shape" fill="#FF341F"></path>
                <path d="M2.16,24.2 C2.15328522,18.341772 4.3155786,12.6884613 8.23,8.33 L7.35,7 C2.64647697,11.4838559 -0.0105643151,17.701694 0,24.2 C0,24.55 0,24.9 -3.13826127e-05,25.2 L2.15,24.6 C2.16,24.49 2.16,24.35 2.16,24.2 Z" id="Shape" fill="#FF341F"></path>
                <path d="M12.67,15 L8.23,8.33 C4.3155786,12.6884613 2.15328522,18.341772 2.16,24.2 C2.16,24.35 2.16,24.49 2.15998441,24.64 L9.7,22.52 C9.88628519,19.7660094 10.9241856,17.1380595 12.67,15 Z" id="Shape" fill="#FF341F"></path>
                <path d="M10.36,27.73 L2.72,29.35 C3.77914274,34.1350106 6.29023156,38.4761558 9.91,41.78 L14,33.32 C12.3375063,31.7910469 11.0858501,29.8688606 10.36,27.73 Z" id="Shape" fill="#FF341F"></path>
                <path d="M30.38,35.76 L29.78,34.97 C28.046495,35.9984732 26.0996198,36.6143564 24.09,36.77 C23.74,36.77 23.37,36.77 23.01,36.77 C21.4700516,36.7777487 19.9405234,36.5171875 18.49,36 L13.64,44.54 L13.13,45.45 C16.4385391,47.1220994 20.0929356,47.9954557 23.8,48 L24.88,48 C29.1178657,47.8108676 33.2273802,46.4882256 36.78,44.17 L30.38,35.76 Z" id="Shape" fill="#FF341F"></path>
                <path d="M47.53,22.46 L38.43,25 L36.17,25.64 C35.828647,27.7116831 34.999124,29.6723739 33.75,31.36 L34.75,32.79 L40.39,41.28 C45.0079803,36.798536 47.6098028,30.6349954 47.6,24.2 C47.6,23.62 47.57,23 47.53,22.46 Z" id="Shape" fill="#FF341F"></path>
                <path d="M24.88,0.43 C24.52,0.43 24.16,0.43 23.8,0.43 C19.2639945,0.420641266 14.8209025,1.71538602 11,4.16 L11.74,5.16 L16.74,11.72 C18.6637208,10.6821396 20.8141773,10.1359373 23,10.13 C23.36,10.13 23.73,10.13 24.08,10.13 C25.7958769,10.2698582 27.4675473,10.7455367 29,11.53 L29.41,10.8 L34,2.69 C31.1425751,1.33197533 28.0409055,0.563359841 24.88,0.43 Z" id="Shape" fill="#FF341F"></path>
                <path d="M37.88,5 L33.88,13.32 L33.17,14.78 C34.5314433,16.3546835 35.5011688,18.2290291 36,20.25 L38,19.82 L46.77,18 C45.3678137,12.7833665 42.2327467,8.19890412 37.88,5 Z" id="Shape" fill="#FF341F"></path>
                <path d="M37.88,5 L38.42,3.9 C37.1512565,3.11129896 35.8122069,2.44177419 34.42,1.9 L34,2.69 C35.3664308,3.33000455 36.6661087,4.10378187 37.88,5 Z" id="Shape" fill="#F9DBD9"></path>
                <path d="M34,2.69 L29.37,10.8 L28.96,11.53 C30.5628955,12.3262839 31.988145,13.4385908 33.15,14.8 L33.86,13.34 L37.86,5.02 C36.6532921,4.11798094 35.3603329,3.33751589 34,2.69 Z" id="Shape" fill="#FFFFFF"></path>
                <path d="M47.53,22.47 L49.64,21.87 C49.5025271,20.4001524 49.2245914,18.9468503 48.81,17.53 L46.81,17.97 C47.1935696,19.4434783 47.4346774,20.9504022 47.53,22.47 Z" id="Shape" fill="#F9DBD9"></path>
                <path d="M46.77,18 L38,19.82 L36,20.25 C36.2623814,21.3031266 36.3933776,22.3846852 36.39,23.47 C36.3909249,24.2070485 36.3307186,24.9429041 36.21,25.67 L38.43,25 L47.53,22.43 C47.4169831,20.9326647 47.1625153,19.4493852 46.77,18 Z" id="Shape" fill="#FFFFFF"></path>
                <path d="M36.78,44.15 L37.46,45.04 C38.7621922,44.3198198 39.9942176,43.4794981 41.14,42.53 L40.34,41.31 C39.2492142,42.3709802 38.0568192,43.3222166 36.78,44.15 Z" id="Shape" fill="#F9DBD9"></path>
                <path d="M34.7,32.82 L33.7,31.39 C32.625951,32.8447143 31.2644688,34.0632408 29.7,34.97 L30.3,35.76 L36.7,44.15 C37.9768192,43.3222166 39.1692142,42.3709802 40.26,41.31 L34.7,32.82 Z" id="Shape" fill="#FFFFFF"></path>
                <path d="M14.74,31.79 L14,33.32 C15.3039439,34.5025041 16.8302831,35.4135484 18.49,36 L18.93,35.24 C17.3130878,34.3871497 15.8873094,33.2131794 14.74,31.79 Z" id="Shape" fill="#F9DBD9"></path>
                <path d="M14,33.32 L9.91,41.78 L9.29,43.07 C10.4889427,43.9957802 11.7749821,44.8029039 13.13,45.48 L13.64,44.57 L18.49,36 C16.8302831,35.4135484 15.3039439,34.5025041 14,33.32 Z" id="Shape" fill="#FFFFFF"></path>
                <path d="M9.67,23.47 C9.66726675,24.9180378 9.90031556,26.3568609 10.36,27.73 L12.36,27.3 C11.989508,26.0570419 11.8008856,24.7669997 11.8,23.47 C11.7997957,22.9420466 11.8298449,22.4145152 11.89,21.89 L9.67,22.52 C9.68,22.83 9.67,23.15 9.67,23.47 Z" id="Shape" fill="#F9DBD9"></path>
                <path d="M9.67,23.47 C9.67,23.15 9.67,22.83 9.67,22.52 L2.17,24.64 L0,25.24 C0.0693811925,26.7734546 0.283669079,28.2969076 0.64,29.79 L2.7,29.35 L10.34,27.73 C9.887107,26.3557345 9.66081762,24.9169393 9.67,23.47 Z" id="Shape" fill="#FFFFFF"></path>
                <path d="M12.67,15 L13.72,16.59 C14.6613831,15.0167578 15.9176378,13.654964 17.41,12.59 L16.71,11.68 C15.1599687,12.513 13.7875998,13.6407883 12.67,15 Z" id="Shape" fill="#F9DBD9"></path>
                <path d="M11.7,5.15 L10.96,4.15 C9.6653123,4.97818718 8.45604816,5.9328694 7.35,7 L8.23,8.32 L12.67,15 C13.7758458,13.6448325 15.1343219,12.5172973 16.67,11.68 L11.7,5.15 Z" id="Shape" fill="#FFFFFF"></path>
            </g>
        </g>
    </g>
</svg>