<svg id="Calque_1" data-name="Calque 1" xmlns="http://www.w3.org/2000/svg" viewBox="0 0 295 290"><defs><style>.cls-1{fill:#454dff;}.cls-2{fill:#2433e2;}.cls-3{fill:#fff;}.cls-4{fill:#cca269;}.cls-5{fill:#896a45;}.cls-6{fill:#fff5e6;}.cls-7{fill:#775123;}.cls-8{fill:#f4e911;}.cls-9{fill:#ffc7cf;}.cls-10{fill:#ffe3e8;}</style></defs><title>01-avatar</title><circle class="cls-1" cx="146.66" cy="146.74" r="140.66"/><path class="cls-2" d="M158.47,91.1,123.53,77.47c25.05-54,139.48-32.14,152.4,25.94A139.78,139.78,0,0,1,259,206.31c-30.81,50.92-108.72,33.57-115.24-25.59h0A168.84,168.84,0,0,1,158.47,91.1Z"/><path class="cls-3" d="M143.53,244.86s-25.22-31-35.36-2.15S96,278,96,278s51.68,23.09,101.41,0c0,0-1.12-82-43.47-33.12Z"/><path class="cls-4" d="M99.88,129.32,85.17,76.08s-.65-14.72,14.71-12,33.78-8.62,48.83-5.52,32.19-4.83,44.5-3.45,20.61,9,16.93,17.25-5.84,26.05-4.61,35.45-8.29,21.47-8.29,21.47S107.87,141.74,99.88,129.32Z"/><path class="cls-5" d="M148,82.53s-5.42-18.33,5.64-18.63,10.87-5.08,14.12-5.64,22.08-10.12,32.56-4.44,16.59,4.24,12.9,18.37S207,95.08,207.37,102.9s-.71,10-6.34,20.69-3.79,5.73-3.79,5.73l-4,.61,6.69-38.29s2.25-9.11-10.34-9.11S151.57,85.49,148,82.53Z"/><path class="cls-3" d="M148,82.53H103.71a7.75,7.75,0,0,0-7.63,9.11l17.92,100a7.74,7.74,0,0,0,7.63,6.38h52.73a7.73,7.73,0,0,0,7.62-6.38l17.92-100a7.74,7.74,0,0,0-7.62-9.11Z"/><path class="cls-6" d="M148,82.53V198h25.09a9.27,9.27,0,0,0,9.13-7.63l18-100.45A6.28,6.28,0,0,0,194,82.53Z"/><circle class="cls-7" cx="127.91" cy="115.19" r="4.38"/><circle class="cls-7" cx="165.24" cy="115.19" r="4.38"/><path class="cls-4" d="M110.59,172.57l3.29,20.51a7.78,7.78,0,0,0,7.68,6.56H174.2a8.5,8.5,0,0,0,8.41-7.31l2.79-19.76Z"/><path class="cls-4" d="M118,102.9s7.68-11.36,17.2-2.15C135.2,100.75,125.37,95.84,118,102.9Z"/><path class="cls-4" d="M176.35,102.9s-7.67-11.36-17.19-2.15C159.16,100.75,169,95.84,176.35,102.9Z"/><circle class="cls-3" cx="103.77" cy="137.74" r="7.81"/><circle class="cls-6" cx="193.21" cy="137.74" r="7.81"/><circle class="cls-6" cx="148.71" cy="152.04" r="10.44"/><path class="cls-7" d="M102.12,134.84a5.09,5.09,0,0,0,0,1.89c.08.46.15.86.21,1.34a12.58,12.58,0,0,1,.08,1.59,7.62,7.62,0,0,1-.29,2.14,3.89,3.89,0,0,1-1.92-1.31,4.1,4.1,0,0,1-.85-2.1,3.67,3.67,0,0,1,.54-2.42A2.31,2.31,0,0,1,102.12,134.84Z"/><path class="cls-7" d="M195.4,141.22a10.44,10.44,0,0,0-.43-1.85,9.24,9.24,0,0,1-.26-1.47,7,7,0,0,1,.06-1.63,6.18,6.18,0,0,1,.63-2,3.93,3.93,0,0,1,1.66,1.46,4.33,4.33,0,0,1,.64,1.95,4,4,0,0,1-.42,2.14A2.4,2.4,0,0,1,195.4,141.22Z"/><path class="cls-5" d="M148,172.57s3.49,17.23-.35,27.07h23.8s9.85,2,11.17-7.31l2.79-19.76Z"/><polygon class="cls-3" points="138.27 182.71 159.16 178.1 159.16 184.24 138.27 182.71"/><path class="cls-6" d="M133.77,119.56S128,127.37,119,124.91C119,124.91,128.24,134.89,133.77,119.56Z"/><polygon class="cls-3" points="139.38 199.82 143.53 244.86 148.71 244.86 148.71 199.64 139.38 199.82"/><polygon class="cls-6" points="158.04 199.82 153.9 244.86 148.71 244.86 148.71 199.64 158.04 199.82"/><path class="cls-1" d="M105.68,237.16s50.57,26,78.92-5.27c0,0,1.09-.37,3.63,3.81,0,0-32.81,35.13-84.46,5.15Z"/><path class="cls-1" d="M103.11,253.52s61.05,26,95.27-5.26c0,0,1.32-.37,4.39,3.81,0,0-39.62,35.13-102,5.15Z"/><path class="cls-1" d="M96.81,265.53s64.91,26,101.29-5.27c0,0,1.4-.36,4.67,3.81,0,0-42.12,35.13-108.42,5.15Z"/><path class="cls-8" d="M126.94,231.17s-12,27.65-13.25,52.16c0,0,38.53,7.17,64.53,1.25,0,0,6.62-24.49-8.79-49.78a3.94,3.94,0,0,0-5.74-1.09l-1.79,1.35a3.56,3.56,0,0,0-1,4.57c1.91,3.44,4.55,9.84,2.46,16.3,0,0-19.35,9.52-27.64,0,0,0-7.47-8.66-1.43-20.61C134.31,235.32,132.57,228.82,126.94,231.17Z"/><path class="cls-9" d="M138.27,152s.82,10.17,10.44,10.44S159.16,152,159.16,152,147.48,161.8,138.27,152Z"/><ellipse class="cls-10" cx="122.99" cy="143.49" rx="9.29" ry="5.74"/><ellipse class="cls-10" cx="172.28" cy="143.49" rx="9.29" ry="5.74"/><circle class="cls-7" cx="128.65" cy="270.84" r="5.12"/><circle class="cls-7" cx="165.24" cy="270.84" r="5.12"/></svg>