<svg id="Calque_1" data-name="Calque 1" xmlns="http://www.w3.org/2000/svg" viewBox="0 0 320 320"><defs><style>.cls-1{fill:#e9f6f8;}.cls-2{fill:#9dd0d6;}.cls-3{fill:#701873;}.cls-4{fill:#9c36a3;}.cls-5,.cls-6,.cls-7{fill:#fff;}.cls-6{opacity:0.3;}.cls-7{opacity:0.63;}</style></defs><title>03-avatar</title><circle class="cls-1" cx="159.5" cy="160.22" r="156.5"/><path class="cls-2" d="M161.1,72.88,122.23,57.72C150.1-2.32,277.41,22,291.79,86.57A155.62,155.62,0,0,1,273,201.06c-34.27,56.65-121,37.35-128.21-28.46h0A187.9,187.9,0,0,1,161.1,72.88Z"/><ellipse class="cls-3" cx="158.13" cy="136.34" rx="62.4" ry="95.42"/><path class="cls-4" d="M164.41,41.4s54.54,123-6.28,190.36c0,0,60.14,9.57,62.4-95.42S164.41,41.4,164.41,41.4Z"/><ellipse class="cls-3" cx="97.22" cy="124.4" rx="17.29" ry="8.74" transform="translate(-36.54 208.28) rotate(-84.08)"/><ellipse class="cls-4" cx="220.6" cy="120.09" rx="9.39" ry="19.69" transform="translate(-19.89 47.62) rotate(-11.79)"/><ellipse class="cls-5" cx="94.16" cy="123.5" rx="3.06" ry="9.68"/><ellipse class="cls-5" cx="224.76" cy="119.22" rx="3.06" ry="9.68"/><path class="cls-3" d="M95.44,141.6s7.37,43.5-28.51,51.69-41,41-22.56,56.38,29.16,36.9,29.16,36.9S80.5,265,65,242.49s45-23.58,47-56.39S114.71,141.19,95.44,141.6Z"/><path class="cls-4" d="M108.66,117.12s1.91,28.46-13.22,24.48C95.44,141.6,104.9,142.41,108.66,117.12Z"/><path class="cls-3" d="M99,107.2s-22.3-57.29,3.09-71.05,49.54-33.78,62.32-2.56S99,107.2,99,107.2Z"/><path class="cls-4" d="M147.92,17S211,15,200.77,62.12,162,33.8,147.92,17Z"/><path class="cls-3" d="M224.62,139.37s-11.9,3.48-13.7-20.15C210.92,119.22,214.15,138,224.62,139.37Z"/><path class="cls-3" d="M142.83,139.55s-1.32,86.21-35.59,102.94S109,304,134.63,299.9s39.21-9.23,37.53-19.48c0,0-27.93,22.56-39.41,6.15S143.1,242,147.56,232,162.35,158.61,142.83,139.55Z"/><path class="cls-4" d="M190.14,148.31s25.9,61.09,9,84.86-1.83,57.61,24,43.26,61.46-38.57,55.93-62.35c0,0-32.59,51.07-44.18,37.75s17.74-25.61,0-54.33S210.28,157.56,190.14,148.31Z"/><path class="cls-4" d="M210.92,148.31s12.87-9.26,48.75,6.58,39.93-70-10.25-92.77c0,0,56.38,1.86,49.21,61.38S271,222,249.42,193.29s-52.17-25-52.17-25S197,146.39,210.92,148.31Z"/><ellipse class="cls-6" cx="191.94" cy="48.37" rx="5.41" ry="7.64" transform="matrix(0.89, -0.46, 0.46, 0.89, -0.63, 94.16)"/><ellipse class="cls-6" cx="181.25" cy="75.88" rx="2.71" ry="3.82" transform="translate(-14.55 92.33) rotate(-27.52)"/><ellipse class="cls-6" cx="132.46" cy="57.66" rx="3.82" ry="2.71" transform="translate(37.67 166.68) rotate(-72.52)"/><ellipse class="cls-6" cx="126.41" cy="96.33" rx="4.94" ry="6.97" transform="translate(-9.08 13.26) rotate(-5.8)"/><ellipse class="cls-6" cx="155.33" cy="124.4" rx="3.82" ry="2.71" transform="translate(-9.99 235.19) rotate(-72.52)"/><ellipse class="cls-6" cx="197" cy="133.18" rx="7.64" ry="5.41" transform="translate(-39.25 106.09) rotate(-27.52)"/><ellipse class="cls-6" cx="122.59" cy="138.04" rx="3.82" ry="2.71" transform="translate(-45.9 213.5) rotate(-72.52)"/><ellipse class="cls-6" cx="145.46" cy="204.78" rx="3.82" ry="2.71" transform="translate(-93.56 282.01) rotate(-72.52)"/><path class="cls-3" d="M217.77,170.71s22.79-3.36,33,10,43.82-32.37,43.82-32.37-5.6,27.49-14.12,41.38-15.26,21.17-28.44,6.81S224.71,170.3,217.77,170.71Z"/><path class="cls-3" d="M226.55,184.1s11.76,32.46,1.27,50.57-17.34,40-1.27,31.78,51.09-28,52.52-52.37c0,0-30.43,41.64-44.18,37.75S267.21,202.82,226.55,184.1Z"/><path class="cls-4" d="M141.84,240.61a.89.89,0,0,0-1.12-1.29c-10,4.78-35.17,19.18-22.15,37.72,16.06,22.86,37.81,26.24,53.59,3.38,0,0-27.51,9.66-32.46-.56C135.32,270.82,135.39,250.28,141.84,240.61Z"/><path class="cls-4" d="M100.94,206.19s-35.33,1.35-43.88,15.09-1.36,27.06,3.76,32.18,13.12,26.93,12.71,33.11,8.91-19.83-4.46-37.23S101.42,215.3,100.94,206.19Z"/><ellipse class="cls-7" cx="75.52" cy="226.16" rx="5.08" ry="6.27"/><ellipse class="cls-7" cx="76.42" cy="268.22" rx="5.08" ry="6.27"/><ellipse class="cls-7" cx="66.26" cy="237.05" rx="5.08" ry="6.27"/><ellipse class="cls-7" cx="70.43" cy="252.63" rx="5.08" ry="6.27"/><ellipse class="cls-7" cx="90.66" cy="216.36" rx="5.08" ry="6.27"/><ellipse class="cls-7" cx="66.26" cy="214.8" rx="5.08" ry="6.27"/><ellipse class="cls-7" cx="56.09" cy="225.49" rx="5.08" ry="6.27"/><ellipse class="cls-7" cx="56.09" cy="239.23" rx="5.08" ry="6.27"/><ellipse class="cls-7" cx="76.42" cy="206.19" rx="5.08" ry="6.27"/><ellipse cx="227.55" cy="115.53" rx="2.79" ry="5.99"/><ellipse cx="95.74" cy="119.22" rx="2.79" ry="5.99"/><ellipse class="cls-7" cx="137.83" cy="249.58" rx="5.08" ry="6.27"/><ellipse class="cls-7" cx="126.41" cy="249.58" rx="5.08" ry="6.27"/><ellipse class="cls-7" cx="131.49" cy="265.17" rx="5.08" ry="6.27"/><ellipse class="cls-7" cx="124.36" cy="279.86" rx="6.27" ry="5.08" transform="translate(-161.47 169.9) rotate(-45)"/><ellipse class="cls-7" cx="116.84" cy="261.95" rx="5.08" ry="6.27"/><ellipse class="cls-7" cx="139.05" cy="279.86" rx="6.27" ry="5.08" transform="translate(-157.17 180.29) rotate(-45)"/><ellipse class="cls-7" cx="151.56" cy="289.33" rx="6.27" ry="5.08" transform="translate(-160.2 191.91) rotate(-45)"/><ellipse class="cls-7" cx="264.66" cy="156.25" rx="5.2" ry="3.97"/><ellipse class="cls-7" cx="251.94" cy="152.28" rx="3.97" ry="5.2" transform="translate(-33.88 222.75) rotate(-45)"/><ellipse class="cls-7" cx="277.02" cy="154.01" rx="5.2" ry="3.97" transform="translate(-32.72 86.77) rotate(-16.82)"/><ellipse class="cls-7" cx="284.27" cy="144.34" rx="5.2" ry="3.97" transform="translate(-18.8 243.29) rotate(-45)"/><ellipse class="cls-7" cx="287.03" cy="129.99" rx="5.2" ry="3.97" transform="translate(-7.85 241.03) rotate(-45)"/><ellipse class="cls-7" cx="251.94" cy="243.51" rx="3.97" ry="5.2" transform="translate(-98.39 249.47) rotate(-45)"/><ellipse class="cls-7" cx="232.93" cy="239.23" rx="5.2" ry="3.97" transform="translate(-59.27 77.65) rotate(-16.82)"/><ellipse class="cls-7" cx="234.89" cy="251.47" rx="5.2" ry="3.97" transform="translate(-109.02 239.75) rotate(-45)"/><ellipse class="cls-7" cx="239.24" cy="225.49" rx="5.2" ry="3.97" transform="translate(-89.38 235.21) rotate(-45)"/></svg>