<svg id="Calque_1" data-name="Calque 1" xmlns="http://www.w3.org/2000/svg" viewBox="0 0 50 50"><defs><style>.cls-1{fill:none;}.cls-2{fill:#40b294;}.cls-3{fill:#70efd1;}.cls-4{fill:#c7e5dd;}.cls-5{fill:#fff;}.cls-6{fill:#f0fffb;}</style></defs><title>bouee-verte</title><path class="cls-1" d="M34,32.28a13.42,13.42,0,0,0-.61-16.69,13.37,13.37,0,0,0-9.12-4.66,13.34,13.34,0,0,0-6.72,2.47,13.57,13.57,0,0,0-3.71,4A13.35,13.35,0,0,0,12,22.73a13.85,13.85,0,0,0-.1,1.59,13.23,13.23,0,0,0,.57,3.85,13.38,13.38,0,0,0,2.36,4.52A13.52,13.52,0,0,0,19,36.18a13.34,13.34,0,0,0,5.2,1.52A13.23,13.23,0,0,0,30,35.89,13.53,13.53,0,0,0,34,32.28Z"/><path class="cls-2" d="M25,49l1.08,0A23.83,23.83,0,0,0,37.7,46l-.69-.9A23.79,23.79,0,0,1,25,49Z"/><path class="cls-2" d="M34.62,2.65a24,24,0,0,0-8.5-1.55q-.54,0-1.08,0A23.82,23.82,0,0,1,34.19,3.4Z"/><path class="cls-2" d="M47.07,18.78l2-.44A24,24,0,0,0,38.66,4.64l-.54,1.11A24,24,0,0,1,47.07,18.78Z"/><path class="cls-2" d="M24.24,10.93c-.35,0-.72,0-1.08,0a13.28,13.28,0,0,0-6.34,1.59l.7.92A13.34,13.34,0,0,1,24.24,10.93Z"/><path class="cls-2" d="M18.61,37a13.43,13.43,0,0,0,4.55.79c.36,0,.73,0,1.08,0A13.34,13.34,0,0,1,19,36.18Z"/><path class="cls-2" d="M13.81,17.42l-1.06-1.6a13.41,13.41,0,0,0-3,7.54L12,22.73A13.35,13.35,0,0,1,13.81,17.42Z"/><path class="cls-2" d="M12.47,28.17l-2,.43a13.31,13.31,0,0,0,3.66,5.62l.74-1.53A13.38,13.38,0,0,1,12.47,28.17Z"/><path class="cls-2" d="M50,22.7l-2.13.6c0,.58.07,1.16.07,1.75a23.85,23.85,0,0,1-7.31,17.22l.81,1.22a23.88,23.88,0,0,0,8.67-18.44C50.07,24.26,50,23.48,50,22.7Z"/><path class="cls-3" d="M9.76,23.36a13.41,13.41,0,0,1,3-7.54L8.28,9.08,7.39,7.75A23.9,23.9,0,0,0,0,25.05c0,.35,0,.7,0,1.05l2.16-.61Z"/><path class="cls-3" d="M14.09,34.22a13.31,13.31,0,0,1-3.66-5.62L2.74,30.23l-2.08.44A24,24,0,0,0,9.35,44l.63-1.3Z"/><path class="cls-3" d="M30.57,36.69l-.6-.8a13.23,13.23,0,0,1-5.73,1.81c-.35,0-.72,0-1.08,0A13.43,13.43,0,0,1,18.61,37l-4.88,8.59-.52.91A23.77,23.77,0,0,0,24,49L25,49a23.79,23.79,0,0,0,12-3.86Z"/><path class="cls-3" d="M36.4,26.52A13.25,13.25,0,0,1,34,32.28l1,1.44,5.67,8.55A23.85,23.85,0,0,0,47.9,25.05c0-.59,0-1.17-.07-1.75l-9.16,2.59Z"/><path class="cls-3" d="M16.82,12.48a13.28,13.28,0,0,1,6.34-1.59c.36,0,.73,0,1.08,0a13.43,13.43,0,0,1,4.9,1.36l.41-.72L34.19,3.4A23.82,23.82,0,0,0,25,1.13c-.36,0-.73,0-1.09,0A23.82,23.82,0,0,0,11,4.89l.76,1Z"/><path class="cls-3" d="M33.36,15.59a13.33,13.33,0,0,1,2.83,5.49l2.06-.44,8.82-1.86a24,24,0,0,0-9-13l-4,8.37Z"/><path class="cls-4" d="M38.12,5.75l.54-1.11a24.84,24.84,0,0,0-4-2l-.43.75A23.89,23.89,0,0,1,38.12,5.75Z"/><path class="cls-5" d="M33.36,15.59l.71-1.47,4-8.37A23.89,23.89,0,0,0,34.19,3.4l-4.64,8.17-.41.72A13.48,13.48,0,0,1,33.36,15.59Z"/><path class="cls-4" d="M47.83,23.3,50,22.7a24.35,24.35,0,0,0-.84-4.36l-2,.44A24,24,0,0,1,47.83,23.3Z"/><path class="cls-5" d="M38.25,20.64l-2.06.44a13.61,13.61,0,0,1,.21,5.44l2.27-.63,9.16-2.59a24,24,0,0,0-.76-4.52Z"/><path class="cls-4" d="M37,45.12l.69.9a24,24,0,0,0,3.7-2.53l-.81-1.22A23,23,0,0,1,37,45.12Z"/><path class="cls-5" d="M34,32.28a13.53,13.53,0,0,1-4,3.61l.6.8L37,45.12a23,23,0,0,0,3.58-2.85l-5.67-8.55Z"/><path class="cls-4" d="M14.83,32.69l-.74,1.53A13.47,13.47,0,0,0,18.61,37l.43-.78A13.52,13.52,0,0,1,14.83,32.69Z"/><path class="cls-5" d="M18.61,37a13.47,13.47,0,0,1-4.52-2.74L10,42.74,9.35,44a23.62,23.62,0,0,0,3.86,2.42l.52-.91Z"/><path class="cls-4" d="M11.9,24.32a13.85,13.85,0,0,1,.1-1.59l-2.24.63q0,.47,0,1a13.15,13.15,0,0,0,.7,4.28l2-.43A13.23,13.23,0,0,1,11.9,24.32Z"/><path class="cls-5" d="M10.43,28.6a13.15,13.15,0,0,1-.7-4.28q0-.5,0-1L2.18,25.49,0,26.1a24.43,24.43,0,0,0,.64,4.57l2.08-.44Z"/><path class="cls-6" d="M17.52,13.4l-.7-.92a13.57,13.57,0,0,0-4.07,3.34l1.06,1.6A13.57,13.57,0,0,1,17.52,13.4Z"/><path class="cls-5" d="M12.75,15.82a13.57,13.57,0,0,1,4.07-3.34l-5-6.6-.76-1A23.79,23.79,0,0,0,7.39,7.75l.89,1.33Z"/></svg>