<svg id="Calque_1" data-name="Calque 1" xmlns="http://www.w3.org/2000/svg" viewBox="0 0 31 30"><defs><style>.cls-1{fill:none;}.cls-2{fill:#40b294;}.cls-3{fill:#70efd1;}.cls-4{fill:#c7e5dd;}.cls-5{fill:#fff;}.cls-6{fill:#f0fffb;}</style></defs><title>bouee-verte</title><path class="cls-1" d="M20.25,19a7.19,7.19,0,0,0,1.32-3.12,6.86,6.86,0,0,0,.1-1.2,7.34,7.34,0,0,0-4-6.54A7.41,7.41,0,0,0,15,7.44a7.32,7.32,0,0,0-6.66,6.41,8.3,8.3,0,0,0-.05.87,7.33,7.33,0,0,0,1.59,4.54,7.49,7.49,0,0,0,2.29,1.9A7.15,7.15,0,0,0,15,22,7.31,7.31,0,0,0,20.25,19Z"/><path class="cls-2" d="M15.4,28.11l.59,0a13,13,0,0,0,6.29-1.62L21.9,26A12.84,12.84,0,0,1,15.4,28.11Z"/><path class="cls-2" d="M20.6,3A12.84,12.84,0,0,0,16,2.1l-.59,0a13,13,0,0,1,5,1.23Z"/><path class="cls-2" d="M27.37,11.71l1.11-.24A13,13,0,0,0,22.8,4l-.29.6A13,13,0,0,1,27.37,11.71Z"/><path class="cls-2" d="M15,7.44l-.59,0a7.29,7.29,0,0,0-3.45.86l.38.5A7.29,7.29,0,0,1,15,7.44Z"/><path class="cls-2" d="M11.9,21.58a7.3,7.3,0,0,0,2.48.43L15,22a7.15,7.15,0,0,1-2.83-.83Z"/><path class="cls-2" d="M9.3,11l-.58-.87A7.3,7.3,0,0,0,7.1,14.19l1.21-.34A7.31,7.31,0,0,1,9.3,11Z"/><path class="cls-2" d="M8.57,16.81l-1.11.24a7.36,7.36,0,0,0,2,3.05l.4-.84A7.26,7.26,0,0,1,8.57,16.81Z"/><path class="cls-2" d="M28.94,13.84l-1.16.33c0,.31,0,.63,0,.95a13,13,0,0,1-4,9.35l.44.66a13,13,0,0,0,4.71-10C29,14.68,29,14.26,28.94,13.84Z"/><path class="cls-3" d="M7.1,14.19A7.3,7.3,0,0,1,8.72,10.1L6.29,6.44l-.48-.73a13,13,0,0,0-4,9.41c0,.19,0,.38,0,.56L3,15.35Z"/><path class="cls-3" d="M9.45,20.1a7.36,7.36,0,0,1-2-3.05l-4.18.88-1.12.24a13,13,0,0,0,4.71,7.26l.35-.71Z"/><path class="cls-3" d="M18.41,21.44,18.08,21A7.21,7.21,0,0,1,15,22l-.59,0a7.3,7.3,0,0,1-2.48-.43L9.25,26.25l-.28.5a13,13,0,0,0,5.84,1.38l.59,0A12.84,12.84,0,0,0,21.9,26Z"/><path class="cls-3" d="M21.57,15.92A7.19,7.19,0,0,1,20.25,19l.52.78,3.08,4.65a13,13,0,0,0,4-9.35c0-.32,0-.64,0-.95l-5,1.4Z"/><path class="cls-3" d="M10.93,8.28a7.29,7.29,0,0,1,3.45-.86l.59,0a7.41,7.41,0,0,1,2.66.74l.22-.39,2.52-4.44a13,13,0,0,0-5-1.23l-.59,0a12.93,12.93,0,0,0-7,2.06l.4.54Z"/><path class="cls-3" d="M19.92,10a7.2,7.2,0,0,1,1.54,3l1.12-.24,4.79-1a13,13,0,0,0-4.86-7.08l-2.2,4.55Z"/><path class="cls-4" d="M22.51,4.63,22.8,4A12.47,12.47,0,0,0,20.6,3l-.23.4A13.17,13.17,0,0,1,22.51,4.63Z"/><path class="cls-5" d="M19.92,10l.39-.8,2.2-4.55a13.17,13.17,0,0,0-2.14-1.28L17.85,7.79l-.22.39A7.32,7.32,0,0,1,19.92,10Z"/><path class="cls-4" d="M27.78,14.17l1.16-.33a13.25,13.25,0,0,0-.46-2.37l-1.11.24A13.16,13.16,0,0,1,27.78,14.17Z"/><path class="cls-5" d="M22.58,12.72,21.46,13a7.25,7.25,0,0,1,.21,1.76,6.86,6.86,0,0,1-.1,1.2l1.23-.35,5-1.4a13.16,13.16,0,0,0-.41-2.46Z"/><path class="cls-4" d="M21.9,26l.38.49a13.25,13.25,0,0,0,2-1.38l-.44-.66A12.64,12.64,0,0,1,21.9,26Z"/><path class="cls-5" d="M20.25,19a7.14,7.14,0,0,1-2.17,2l.33.44L21.9,26a12.64,12.64,0,0,0,2-1.55l-3.08-4.65Z"/><path class="cls-4" d="M9.85,19.26l-.4.84a7.47,7.47,0,0,0,2.45,1.48l.24-.42A7.49,7.49,0,0,1,9.85,19.26Z"/><path class="cls-5" d="M11.9,21.58A7.47,7.47,0,0,1,9.45,20.1L7.22,24.72l-.35.71A14.25,14.25,0,0,0,9,26.75l.28-.5Z"/><path class="cls-4" d="M8.26,14.72a8.3,8.3,0,0,1,.05-.87l-1.21.34c0,.18,0,.35,0,.53a7.25,7.25,0,0,0,.38,2.33l1.11-.24A7.24,7.24,0,0,1,8.26,14.72Z"/><path class="cls-5" d="M7.46,17.05a7.25,7.25,0,0,1-.38-2.33c0-.18,0-.35,0-.53L3,15.35l-1.17.33a12,12,0,0,0,.35,2.49l1.12-.24Z"/><path class="cls-6" d="M11.31,8.78l-.38-.5A7.48,7.48,0,0,0,8.72,10.1L9.3,11A7.25,7.25,0,0,1,11.31,8.78Z"/><path class="cls-5" d="M8.72,10.1a7.48,7.48,0,0,1,2.21-1.82L8.19,4.7l-.4-.54a12.88,12.88,0,0,0-2,1.55l.48.73Z"/></svg>