<svg id="Calque_1" data-name="Calque 1" xmlns="http://www.w3.org/2000/svg" viewBox="0 0 50 50"><defs><style>.cls-1{fill:#dd1c12;}.cls-2{fill:#ff341f;}.cls-3{fill:#f9dbd9;}.cls-4{fill:#fff;}</style></defs><title>bouee-red</title><path class="cls-1" d="M24.88,49,26,49a23.64,23.64,0,0,0,11.5-3l-.68-.89A23.71,23.71,0,0,1,24.88,49Z"/><path class="cls-1" d="M34.4,2.94A23.85,23.85,0,0,0,26,1.4q-.54,0-1.08,0A23.56,23.56,0,0,1,34,3.69Z"/><path class="cls-1" d="M46.77,19l2-.44A23.9,23.9,0,0,0,38.42,4.92L37.88,6A23.8,23.8,0,0,1,46.77,19Z"/><path class="cls-1" d="M24.09,11.17c-.35,0-.72,0-1.08,0a13.26,13.26,0,0,0-6.3,1.58l.7.91A13.27,13.27,0,0,1,24.09,11.17Z"/><path class="cls-1" d="M18.49,37a13.26,13.26,0,0,0,4.52.79c.36,0,.73,0,1.08,0a13.25,13.25,0,0,1-5.16-1.5Z"/><path class="cls-1" d="M9.7,23.52l2.22-.63a13.37,13.37,0,0,1,1.8-5.27L12.67,16A13.31,13.31,0,0,0,9.7,23.52Z"/><path class="cls-1" d="M14,34.32l.74-1.53a13.12,13.12,0,0,1-2.35-4.49l-2,.43A13.48,13.48,0,0,0,14,34.32Z"/><path class="cls-1" d="M47.53,23.47c0,.57.07,1.15.07,1.73a23.75,23.75,0,0,1-7.26,17.11l.8,1.22A23.75,23.75,0,0,0,49.76,25.2a22.58,22.58,0,0,0-.12-2.33Z"/><path class="cls-2" d="M2.72,30.35l-2.06.44A23.82,23.82,0,0,0,9.29,44.07l.62-1.29A23.79,23.79,0,0,1,2.72,30.35Z"/><path class="cls-2" d="M2.16,25.2A23.71,23.71,0,0,1,8.23,9.33L7.35,8A23.71,23.71,0,0,0,0,25.2c0,.35,0,.7,0,1l2.15-.6C2.16,25.49,2.16,25.35,2.16,25.2Z"/><path class="cls-2" d="M12.67,16,8.23,9.33A23.71,23.71,0,0,0,2.16,25.2c0,.15,0,.29,0,.44L9.7,23.52A13.31,13.31,0,0,1,12.67,16Z"/><path class="cls-2" d="M10.36,28.73,2.72,30.35A23.79,23.79,0,0,0,9.91,42.78L14,34.32A13.48,13.48,0,0,1,10.36,28.73Z"/><path class="cls-2" d="M30.38,36.76l-.6-.79a13.14,13.14,0,0,1-5.69,1.8c-.35,0-.72,0-1.08,0A13.26,13.26,0,0,1,18.49,37l-4.85,8.54-.51.91A23.72,23.72,0,0,0,23.8,49l1.08,0a23.71,23.71,0,0,0,11.9-3.83Z"/><path class="cls-2" d="M47.53,23.46,38.43,26l-2.26.64a13.23,13.23,0,0,1-2.42,5.72l1,1.43,5.64,8.49A23.75,23.75,0,0,0,47.6,25.2C47.6,24.62,47.57,24,47.53,23.46Z"/><path class="cls-2" d="M24.88,1.43q-.54,0-1.08,0A23.66,23.66,0,0,0,11,5.16l.74,1,5,6.56A13.26,13.26,0,0,1,23,11.13c.36,0,.73,0,1.08,0A13.14,13.14,0,0,1,29,12.53l.41-.73L34,3.69A23.56,23.56,0,0,0,24.88,1.43Z"/><path class="cls-2" d="M37.88,6l-4,8.32-.71,1.46A13.2,13.2,0,0,1,36,21.25l2-.43L46.77,19A23.8,23.8,0,0,0,37.88,6Z"/><path class="cls-3" d="M37.88,6l.54-1.1a24.2,24.2,0,0,0-4-2L34,3.69A22.85,22.85,0,0,1,37.88,6Z"/><path class="cls-4" d="M34,3.69,29.37,11.8l-.41.73a13.27,13.27,0,0,1,4.19,3.27l.71-1.46,4-8.32A22.85,22.85,0,0,0,34,3.69Z"/><path class="cls-3" d="M47.53,23.47l2.11-.6a23.12,23.12,0,0,0-.83-4.34l-2,.44A23.77,23.77,0,0,1,47.53,23.47Z"/><path class="cls-4" d="M46.77,19,38,20.82l-2,.43a13.15,13.15,0,0,1,.39,3.22,13.33,13.33,0,0,1-.18,2.2L38.43,26l9.1-2.57A23.8,23.8,0,0,0,46.77,19Z"/><path class="cls-3" d="M36.78,45.15l.68.89a23.88,23.88,0,0,0,3.68-2.51l-.8-1.22A23.23,23.23,0,0,1,36.78,45.15Z"/><path class="cls-4" d="M34.7,33.82l-1-1.43a13.2,13.2,0,0,1-4,3.58l.6.79,6.4,8.39a23.23,23.23,0,0,0,3.56-2.84Z"/><path class="cls-3" d="M14.74,32.79,14,34.32A13.26,13.26,0,0,0,18.49,37l.44-.76A13.43,13.43,0,0,1,14.74,32.79Z"/><path class="cls-4" d="M14,34.32,9.91,42.78l-.62,1.29a23.39,23.39,0,0,0,3.84,2.41l.51-.91L18.49,37A13.26,13.26,0,0,1,14,34.32Z"/><path class="cls-3" d="M9.67,24.47a13.34,13.34,0,0,0,.69,4.26l2-.43a13.44,13.44,0,0,1-.56-3.83,13.82,13.82,0,0,1,.09-1.58l-2.22.63C9.68,23.83,9.67,24.15,9.67,24.47Z"/><path class="cls-4" d="M9.67,24.47c0-.32,0-.64,0-.95L2.17,25.64,0,26.24a24.34,24.34,0,0,0,.64,4.55l2.06-.44,7.64-1.62A13.34,13.34,0,0,1,9.67,24.47Z"/><path class="cls-3" d="M12.67,16l1.05,1.59a13.31,13.31,0,0,1,3.69-4l-.7-.91A13.51,13.51,0,0,0,12.67,16Z"/><path class="cls-4" d="M11.7,6.15l-.74-1A23.22,23.22,0,0,0,7.35,8l.88,1.32L12.67,16a13.51,13.51,0,0,1,4-3.32Z"/></svg>